<?xml version="1.0" encoding="UTF-8"?>
<svg width="18px" height="13px" viewBox="0 0 18 13" version="1.1" xmlns="http://www.w3.org/2000/svg" xmlns:xlink="http://www.w3.org/1999/xlink">
    <!-- Generator: Sketch 48.2 (47327) - http://www.bohemiancoding.com/sketch -->
    <title>02_02.language_chinese</title>
    <desc>Created with Sketch.</desc>
    <defs></defs>
    <g id="02_02.交易(黑-已登录-K线图-鼠标悬停与点击下拉)" stroke="none" stroke-width="1" fill="none" fill-rule="evenodd" transform="translate(-1470.000000, -67.000000)">
        <g id="Group-7" transform="translate(1455.000000, 55.000000)" fill-rule="nonzero">
            <g id="Group-61" transform="translate(15.000000, 12.000000)">
                <g id="02_02.language_chinese">
                    <path d="M0.0741809687,11.9418392 L17.9205142,11.9418392 L17.9205142,0.0738061721 L0.0741809687,0.0738061721 L0.0741809687,11.9418392 Z M17.9647979,12.0418392 L17.9647979,11.9418392 L17.9647979,12.0418392 Z M0.00037479661,12.0156454 L0.00037479661,0 L17.9943204,0 L17.9943204,12.0156454 L0.00037479661,12.0156454 Z" id="Shape" fill="#353636"></path>
                    <polygon id="Shape" fill="#D64B24" points="0.0446585046 0.0295224759 17.9647979 0.0295224759 17.9647979 11.9713617 0.0446585046 11.9713617"></polygon>
                    <path d="M3.04118923,1.3875561 L3.42498134,2.55369368 L4.65016385,2.55369368 L3.6611611,3.26223296 L4.03019197,4.42837053 L3.04118923,3.70507001 L2.05218648,4.42837053 L2.43597859,3.26223296 L1.44697583,2.55369368 L2.67215835,2.55369368 L3.04118923,1.3875561 Z M6.22961601,0.76758422 L6.21485478,1.18089881 L6.58388565,1.32851116 L6.1853323,1.4318398 L6.17057107,1.83039315 L5.94915254,1.49088474 L5.56536043,1.57945216 L5.81630143,1.26946622 L5.60964413,0.929957808 L5.97867502,1.0923314 L6.22961601,0.76758422 Z M7.60241087,2.08133414 L7.42527605,2.4356038 L7.70573952,2.71606725 L7.30718617,2.65702231 L7.13005135,3.01129196 L7.07100641,2.61273862 L6.67245307,2.55369368 L7.02672271,2.37655886 L6.96767777,1.97800551 L7.24814123,2.25846896 L7.60241087,2.08133414 Z M7.18909629,3.70507001 L7.32194741,4.08886212 L7.72050075,4.08886212 L7.39575358,4.32504189 L7.51384346,4.70883399 L7.18909629,4.47265423 L6.86434912,4.70883399 L6.99720023,4.32504189 L6.67245307,4.08886212 L7.07100641,4.08886212 L7.18909629,3.70507001 Z M6.22961601,4.94501375 L6.20009353,5.3435671 L6.58388565,5.49117946 L6.1853323,5.59450811 L6.15580984,5.99306145 L5.94915254,5.65355305 L5.55059919,5.75688169 L5.81630143,5.44689575 L5.5948829,5.10738734 L5.97867502,5.2549997 L6.22961601,4.94501375 Z" id="Shape" fill="#FBDC00"></path>
                </g>
            </g>
        </g>
    </g>
</svg>