<?xml version="1.0" encoding="UTF-8"?>
<svg width="18px" height="12px" viewBox="0 0 18 12" version="1.1" xmlns="http://www.w3.org/2000/svg" xmlns:xlink="http://www.w3.org/1999/xlink">
    <!-- Generator: Sketch 48.2 (47327) - http://www.bohemiancoding.com/sketch -->
    <title>02_02.language_english</title>
    <desc>Created with Sketch.</desc>
    <defs>
        <rect id="path-1" x="0" y="0" width="18" height="12"></rect>
    </defs>
    <g id="02_02.交易(黑-已登录-K线图-鼠标悬停与点击下拉)" stroke="none" stroke-width="1" fill="none" fill-rule="evenodd" transform="translate(-1470.000000, -125.000000)">
        <g id="Group-7" transform="translate(1455.000000, 55.000000)">
            <g id="02_02.language_english" transform="translate(15.000000, 70.000000)">
                <mask id="mask-2" fill="white">
                    <use xlink:href="#path-1"></use>
                </mask>
                <use id="Rectangle-27" fill="#D8D8D8" xlink:href="#path-1"></use>
                <g id="英国-(1)" mask="url(#mask-2)" fill-rule="nonzero">
                    <g transform="translate(-2.000000, -1.000000)" id="Shape">
                        <path d="M0.0883986908,14.2818623 L21.4000563,14.2818623 L21.4000563,0.109345642 L0.0883986908,0.109345642 L0.0883986908,14.2818623 Z M21.4353113,14.3716938 L21.4353113,14.2642348 L21.4353113,14.3716938 Z M0.000261146303,14.3699999 L0.000261146303,0.00358058818 L21.4881938,0.00358058818 L21.4881938,14.3523724 L0.000261146303,14.3523724 L0.000261146303,14.3699999 Z" fill="#353636"></path>
                        <polygon fill="#00458F" points="0.053143673 0.0564631149 21.4529388 0.0564631149 21.4529388 14.3171174 0.053143673 14.3171174"></polygon>
                        <polygon fill="#FFFFFF" points="21.4353113 5.04504798 12.8859697 5.04504798 12.8859697 0.0564631149 8.60248522 0.0564631149 8.60248522 5.04504798 0.053143673 5.04504798 0.053143673 9.3285325 8.60248522 9.3285325 8.60248522 14.3171174 12.8859697 14.3171174 12.8859697 9.3285325 21.4353113 9.3285325"></polygon>
                        <polygon fill="#FFFFFF" points="21.4353113 12.6777591 2.50336734 0.0564631149 0.053143673 0.0564631149 0.053143673 1.71344889 18.9674601 14.3171174 21.4353113 14.3171174"></polygon>
                        <polygon fill="#FFFFFF" points="0.053143673 12.6777591 18.9850876 0.0564631149 21.4353113 0.0564631149 21.4353113 1.71344889 2.52099485 14.3171174 0.053143673 14.3171174"></polygon>
                        <polygon fill="#CC3440" points="21.4353113 5.9440509 11.9869668 5.9440509 11.9869668 0.0564631149 9.50148814 0.0564631149 9.50148814 5.9440509 0.053143673 5.9440509 0.053143673 8.42952957 9.50148814 8.42952957 9.50148814 14.3171174 11.9869668 14.3171174 11.9869668 8.42952957 21.4353113 8.42952957"></polygon>
                        <path d="M21.4353113,14.2818623 L21.4353113,13.1537018 L15.6887436,9.3285325 L13.9965028,9.3285325 L21.4353113,14.2818623 Z M21.4353113,0.0564631149 L19.7430705,0.0564631149 L12.8859697,4.62198778 L12.8859697,5.04504798 L13.9436202,5.04504798 L21.4353113,0.0564631149 Z M7.49195219,9.3285325 L0.053143673,14.2818623 L0.053143673,14.3171174 L1.67487443,14.3171174 L8.60248522,9.71633768 L8.60248522,9.3285325 L7.49195219,9.3285325 Z M0.053143673,0.0564631149 L0.053143673,1.18462364 L5.83496641,5.04504798 L7.54483471,5.04504798 L0.053143673,0.0564631149 Z" fill="#CC3440"></path>
                    </g>
                </g>
            </g>
        </g>
    </g>
</svg>