<svg id="svg" version="1.1" width="400" height="63.855421686746986" viewBox="0 0 400 63.855421686746986" xmlns="http://www.w3.org/2000/svg" xmlns:xlink="http://www.w3.org/1999/xlink" ><g id="svgg"><path id="path0" d="M115.339 8.322 C 115.118 8.736,115.119 9.000,115.343 9.000 C 115.440 9.000,115.478 8.932,115.426 8.848 C 115.268 8.592,115.529 8.142,115.780 8.239 C 115.912 8.289,115.972 8.256,115.915 8.165 C 115.756 7.907,115.528 7.970,115.339 8.322 M89.323 8.380 C 89.048 8.594,88.773 9.167,88.944 9.167 C 89.057 9.167,89.833 8.358,89.833 8.241 C 89.833 8.107,89.588 8.173,89.323 8.380 M99.630 8.593 C 100.101 8.923,100.099 9.223,99.625 9.554 C 99.419 9.698,99.338 9.820,99.446 9.825 C 99.709 9.836,100.167 9.366,100.167 9.083 C 100.167 8.807,99.714 8.333,99.451 8.333 C 99.345 8.333,99.426 8.450,99.630 8.593 M112.373 9.611 C 112.257 9.658,112.079 9.858,111.975 10.056 C 111.800 10.394,111.816 10.391,112.227 10.013 C 112.469 9.790,112.667 9.584,112.667 9.554 C 112.667 9.493,112.664 9.494,112.373 9.611 M88.051 10.902 C 87.794 11.124,87.621 11.332,87.667 11.364 C 87.712 11.397,87.966 11.216,88.229 10.962 C 88.819 10.394,88.691 10.351,88.051 10.902 M72.275 11.755 C 72.329 11.895,72.532 12.092,72.728 12.194 C 73.055 12.364,73.051 12.343,72.679 11.939 C 72.215 11.434,72.138 11.399,72.275 11.755 M102.429 13.262 C 102.285 13.406,102.171 13.650,102.177 13.804 C 102.185 14.002,102.232 13.973,102.340 13.704 C 102.424 13.496,102.663 13.257,102.871 13.173 C 103.140 13.065,103.168 13.018,102.970 13.011 C 102.816 13.005,102.573 13.118,102.429 13.262 M74.333 17.954 C 74.333 18.163,74.810 18.579,74.922 18.467 C 74.966 18.423,74.852 18.251,74.668 18.084 C 74.484 17.918,74.333 17.859,74.333 17.954 M112.667 20.192 C 112.667 20.541,112.676 20.543,113.000 20.250 C 113.183 20.084,113.333 19.922,113.333 19.891 C 113.333 19.859,113.183 19.833,113.000 19.833 C 112.770 19.833,112.667 19.944,112.667 20.192 M242.938 26.375 C 242.794 26.916,242.810 29.500,242.958 29.500 C 243.027 29.501,243.059 28.877,243.030 28.114 C 242.988 27.011,243.031 26.682,243.239 26.509 C 243.562 26.241,243.576 26.000,243.269 26.000 C 243.143 26.000,242.994 26.169,242.938 26.375 M248.451 26.328 C 248.762 26.692,248.929 26.655,248.776 26.257 C 248.722 26.116,248.563 26.000,248.424 26.000 C 248.206 26.000,248.210 26.046,248.451 26.328 M292.339 26.322 C 292.229 26.529,292.167 28.990,292.167 33.167 C 292.167 40.251,292.178 40.340,293.048 40.323 C 293.550 40.313,293.559 40.303,293.193 40.156 C 292.978 40.070,292.747 40.034,292.679 40.076 C 292.463 40.209,292.449 39.791,292.449 33.167 C 292.449 26.543,292.463 26.124,292.679 26.258 C 292.747 26.300,292.978 26.264,293.193 26.178 C 293.559 26.031,293.550 26.020,293.048 26.011 C 292.681 26.003,292.457 26.102,292.339 26.322 M248.721 27.917 C 248.722 28.558,248.752 28.800,248.788 28.455 C 248.824 28.109,248.824 27.584,248.787 27.288 C 248.750 26.992,248.721 27.275,248.721 27.917 M233.667 27.313 C 233.667 27.523,234.156 27.900,234.275 27.781 C 234.445 27.610,234.191 27.167,233.922 27.167 C 233.782 27.167,233.667 27.232,233.667 27.313 M305.224 27.578 C 305.330 27.804,305.442 27.914,305.474 27.822 C 305.556 27.585,305.373 27.167,305.188 27.167 C 305.100 27.167,305.116 27.348,305.224 27.578 M148.997 28.587 C 148.675 28.975,148.904 29.049,149.249 28.668 C 149.415 28.484,149.474 28.333,149.380 28.333 C 149.285 28.333,149.113 28.448,148.997 28.587 M174.661 28.473 C 174.892 28.542,175.125 28.775,175.193 29.006 C 175.305 29.382,175.313 29.375,175.283 28.917 C 175.255 28.488,175.179 28.412,174.750 28.384 C 174.292 28.354,174.284 28.362,174.661 28.473 M191.262 28.595 C 191.118 28.739,191.006 29.058,191.014 29.304 C 191.027 29.747,191.029 29.747,191.264 29.208 C 191.394 28.910,191.609 28.667,191.741 28.667 C 191.872 28.667,192.027 28.592,192.083 28.500 C 192.251 28.229,191.547 28.310,191.262 28.595 M212.263 28.645 C 212.632 29.005,212.718 28.994,212.569 28.607 C 212.512 28.457,212.347 28.333,212.203 28.333 C 211.987 28.333,211.997 28.387,212.263 28.645 M263.542 28.444 C 263.427 28.490,263.339 28.728,263.346 28.972 C 263.354 29.226,263.398 29.309,263.450 29.167 C 263.500 29.029,263.700 28.787,263.895 28.629 C 264.246 28.344,264.047 28.240,263.542 28.444 M273.636 28.792 C 273.882 29.044,274.113 29.179,274.150 29.092 C 274.187 29.005,274.130 28.904,274.024 28.869 C 273.918 28.834,273.881 28.725,273.941 28.627 C 274.006 28.521,273.973 28.497,273.859 28.567 C 273.753 28.633,273.667 28.607,273.667 28.510 C 273.667 28.413,273.559 28.333,273.427 28.333 C 273.270 28.333,273.341 28.490,273.636 28.792 M276.562 28.578 C 276.511 28.712,276.507 28.919,276.554 29.036 C 276.608 29.168,276.645 29.137,276.654 28.953 C 276.661 28.790,276.835 28.588,277.042 28.505 L 277.417 28.354 277.036 28.344 C 276.827 28.338,276.614 28.443,276.562 28.578 M308.333 28.510 C 308.333 28.607,308.247 28.633,308.141 28.567 C 308.027 28.497,307.994 28.521,308.059 28.627 C 308.119 28.725,308.082 28.834,307.976 28.869 C 307.870 28.904,307.813 29.005,307.850 29.092 C 307.887 29.179,308.118 29.044,308.364 28.792 C 308.659 28.490,308.730 28.333,308.573 28.333 C 308.441 28.333,308.333 28.413,308.333 28.510 M315.417 28.452 C 315.600 28.496,315.821 28.600,315.908 28.683 C 316.181 28.942,316.371 28.847,316.107 28.583 C 315.970 28.446,315.683 28.342,315.470 28.353 C 315.130 28.370,315.124 28.382,315.417 28.452 M158.750 28.667 C 158.693 28.758,158.682 28.891,158.726 28.960 C 158.769 29.030,158.709 29.265,158.592 29.483 C 158.456 29.738,158.339 29.811,158.264 29.689 C 158.200 29.585,158.065 29.500,157.964 29.500 C 157.864 29.500,157.925 29.658,158.099 29.851 C 158.396 30.179,158.417 30.516,158.417 35.084 C 158.417 37.770,158.473 39.933,158.542 39.891 C 158.610 39.848,158.667 39.931,158.667 40.073 C 158.667 40.216,158.779 40.333,158.917 40.333 C 159.054 40.333,159.167 40.268,159.167 40.187 C 159.167 40.107,159.054 39.947,158.917 39.833 C 158.550 39.529,158.544 30.053,158.910 29.346 C 159.044 29.087,159.102 28.825,159.040 28.762 C 158.978 28.700,159.068 28.703,159.241 28.770 C 159.459 28.853,159.518 28.831,159.434 28.695 C 159.287 28.456,158.890 28.440,158.750 28.667 M328.566 28.695 C 328.484 28.827,328.537 28.855,328.731 28.780 C 328.889 28.720,328.975 28.738,328.924 28.821 C 328.783 29.049,329.679 30.031,329.937 29.932 C 330.061 29.884,330.145 29.936,330.123 30.048 C 330.101 30.159,330.183 30.229,330.304 30.204 C 330.425 30.179,330.478 30.235,330.420 30.328 C 330.362 30.421,330.392 30.629,330.486 30.790 C 330.634 31.045,330.657 31.028,330.662 30.657 C 330.668 30.083,330.287 29.585,329.942 29.717 C 329.743 29.794,329.641 29.700,329.562 29.369 C 329.372 28.575,328.856 28.225,328.566 28.695 M86.073 33.750 C 86.073 36.133,86.096 37.085,86.125 35.865 C 86.153 34.645,86.153 32.695,86.124 31.532 C 86.096 30.368,86.073 31.367,86.073 33.750 M147.743 29.678 C 147.574 29.951,147.709 29.966,148.167 29.724 C 148.566 29.514,148.568 29.505,148.218 29.502 C 148.017 29.501,147.804 29.580,147.743 29.678 M175.917 29.667 C 175.973 29.758,176.132 29.833,176.270 29.833 C 176.407 29.833,176.473 29.758,176.417 29.667 C 176.360 29.575,176.201 29.500,176.064 29.500 C 175.926 29.500,175.860 29.575,175.917 29.667 M213.250 29.667 C 213.307 29.758,213.466 29.833,213.603 29.833 C 213.741 29.833,213.807 29.758,213.750 29.667 C 213.693 29.575,213.534 29.500,213.397 29.500 C 213.259 29.500,213.193 29.575,213.250 29.667 M250.058 29.757 C 250.003 29.899,250.006 30.061,250.063 30.118 C 250.120 30.175,250.167 30.103,250.167 29.957 C 250.167 29.811,250.298 29.657,250.458 29.615 C 250.732 29.543,250.731 29.537,250.453 29.519 C 250.290 29.509,250.112 29.616,250.058 29.757 M262.667 29.667 C 262.667 29.758,262.573 29.815,262.458 29.792 C 262.329 29.766,262.234 29.972,262.209 30.333 L 262.167 30.917 262.376 30.444 C 262.491 30.184,262.772 29.868,263.001 29.742 C 263.411 29.515,263.412 29.512,263.042 29.506 C 262.835 29.503,262.667 29.575,262.667 29.667 M306.917 29.667 C 306.786 29.879,307.172 29.879,307.500 29.667 C 307.703 29.535,307.682 29.505,307.385 29.503 C 307.184 29.501,306.973 29.575,306.917 29.667 M317.178 29.615 C 317.216 30.048,317.477 30.415,317.488 30.052 C 317.495 29.851,317.425 29.640,317.333 29.583 C 317.242 29.527,317.172 29.541,317.178 29.615 M190.006 29.989 C 189.590 30.767,189.801 31.110,190.316 30.494 C 190.582 30.176,190.765 29.860,190.723 29.792 C 190.580 29.556,190.178 29.667,190.006 29.989 M248.722 34.750 C 248.727 37.408,248.758 39.098,248.791 38.504 C 248.824 37.911,248.930 37.377,249.026 37.317 C 249.145 37.244,249.147 37.108,249.035 36.896 C 248.825 36.503,248.824 31.855,249.034 31.449 C 249.119 31.283,249.352 31.082,249.553 31.001 C 249.895 30.863,249.889 30.854,249.458 30.844 C 249.206 30.838,248.989 30.927,248.976 31.042 C 248.963 31.156,248.899 30.950,248.833 30.583 C 248.768 30.217,248.718 32.092,248.722 34.750 M299.500 30.255 C 299.500 30.521,299.943 30.779,300.110 30.612 C 300.207 30.515,299.773 30.000,299.595 30.000 C 299.543 30.000,299.500 30.115,299.500 30.255 M234.163 30.917 C 234.136 31.100,234.118 31.343,234.122 31.457 C 234.126 31.570,234.078 31.631,234.015 31.593 C 233.952 31.554,233.792 31.591,233.659 31.675 C 233.470 31.794,233.501 31.829,233.797 31.831 C 234.227 31.834,234.394 31.539,234.286 30.970 C 234.221 30.629,234.206 30.622,234.163 30.917 M188.889 31.043 C 189.149 31.158,189.465 31.439,189.591 31.668 C 189.819 32.078,189.822 32.078,189.827 31.708 C 189.831 31.502,189.758 31.333,189.667 31.333 C 189.575 31.333,189.519 31.240,189.542 31.125 C 189.567 30.996,189.362 30.901,189.000 30.875 L 188.417 30.834 188.889 31.043 M285.000 31.018 C 285.000 31.124,285.122 31.156,285.287 31.092 C 285.444 31.032,285.519 31.037,285.453 31.103 C 285.387 31.169,285.454 31.357,285.603 31.521 C 285.751 31.685,285.931 32.067,286.003 32.368 L 286.133 32.917 286.150 32.385 C 286.159 32.092,286.095 31.809,286.007 31.754 C 285.920 31.700,285.893 31.538,285.948 31.395 C 286.003 31.251,285.944 31.067,285.816 30.986 C 285.489 30.779,285.000 30.798,285.000 31.018 M299.558 31.091 C 299.412 31.469,299.612 31.578,299.909 31.282 C 300.234 30.956,300.235 30.833,299.911 30.833 C 299.771 30.833,299.612 30.949,299.558 31.091 M317.500 31.018 C 317.500 31.119,317.605 31.162,317.734 31.113 C 317.875 31.059,318.002 31.157,318.056 31.362 C 318.112 31.576,318.219 31.654,318.348 31.574 C 318.478 31.494,318.509 31.518,318.433 31.640 C 318.368 31.745,318.392 31.963,318.486 32.124 C 318.628 32.368,318.657 32.329,318.662 31.887 C 318.664 31.596,318.549 31.239,318.405 31.095 C 318.104 30.795,317.500 30.743,317.500 31.018 M195.667 32.083 C 195.667 32.221,195.742 32.333,195.833 32.333 C 195.925 32.333,196.000 32.221,196.000 32.083 C 196.000 31.946,195.925 31.833,195.833 31.833 C 195.742 31.833,195.667 31.946,195.667 32.083 M254.711 32.500 C 254.541 33.165,254.547 33.213,254.760 32.926 C 254.902 32.735,255.000 32.692,255.000 32.819 C 255.000 32.943,255.107 32.995,255.250 32.940 C 255.387 32.887,255.500 32.916,255.500 33.005 C 255.500 33.094,255.669 33.162,255.875 33.156 C 256.208 33.147,256.192 33.117,255.734 32.888 C 255.450 32.746,255.147 32.433,255.060 32.190 C 254.906 31.762,254.896 31.771,254.711 32.500 M312.228 32.208 C 312.158 32.415,312.115 32.637,312.132 32.702 C 312.149 32.768,312.051 32.779,311.915 32.726 C 311.778 32.674,311.667 32.719,311.667 32.827 C 311.667 33.195,312.416 32.938,312.434 32.564 C 312.444 32.371,312.505 32.127,312.569 32.023 C 312.634 31.919,312.612 31.833,312.521 31.833 C 312.430 31.833,312.298 32.002,312.228 32.208 M152.503 32.375 C 152.504 32.651,152.543 32.690,152.650 32.522 C 152.729 32.397,152.897 32.229,153.022 32.150 C 153.190 32.043,153.151 32.004,152.875 32.003 C 152.596 32.001,152.501 32.096,152.503 32.375 M207.895 32.268 C 207.833 32.441,207.761 32.624,207.735 32.675 C 207.710 32.725,207.762 32.875,207.851 33.008 C 207.992 33.217,208.009 33.216,207.981 33.000 C 207.962 32.862,208.006 32.616,208.078 32.451 C 208.149 32.287,208.163 32.107,208.108 32.052 C 208.053 31.997,207.957 32.094,207.895 32.268 M233.881 32.375 C 234.255 32.755,234.443 32.692,234.271 32.245 C 234.219 32.110,234.027 32.000,233.845 32.000 C 233.523 32.000,233.524 32.012,233.881 32.375 M305.762 32.262 C 305.462 32.562,305.407 33.333,305.686 33.333 C 305.790 33.333,305.834 33.186,305.785 33.000 C 305.737 32.816,305.757 32.703,305.830 32.748 C 306.009 32.859,306.361 32.416,306.212 32.268 C 306.147 32.202,306.222 32.199,306.380 32.259 C 306.545 32.322,306.667 32.290,306.667 32.184 C 306.667 31.910,306.062 31.962,305.762 32.262 M183.500 32.386 C 183.500 32.507,183.256 32.728,182.958 32.876 C 182.488 33.110,182.466 33.147,182.792 33.156 C 182.998 33.162,183.167 33.094,183.167 33.005 C 183.167 32.916,183.279 32.887,183.417 32.940 C 183.599 33.010,183.667 32.919,183.667 32.601 C 183.667 32.362,183.629 32.167,183.583 32.167 C 183.537 32.167,183.500 32.266,183.500 32.386 M267.833 32.386 C 267.833 32.507,267.590 32.728,267.292 32.876 C 266.821 33.110,266.799 33.147,267.125 33.156 C 267.331 33.162,267.500 33.094,267.500 33.005 C 267.500 32.916,267.612 32.887,267.750 32.940 C 267.933 33.010,268.000 32.919,268.000 32.601 C 268.000 32.362,267.962 32.167,267.917 32.167 C 267.871 32.167,267.833 32.266,267.833 32.386 M279.636 32.700 C 279.339 33.009,279.269 33.167,279.427 33.167 C 279.559 33.167,279.667 33.087,279.667 32.990 C 279.667 32.893,279.753 32.867,279.859 32.933 C 279.978 33.006,280.006 32.978,279.933 32.859 C 279.745 32.556,280.021 32.635,280.282 32.958 C 280.496 33.224,280.507 33.213,280.407 32.833 C 280.241 32.209,280.126 32.189,279.636 32.700 M324.844 32.552 C 324.838 32.823,324.903 32.976,325.000 32.917 C 325.092 32.860,325.167 32.893,325.167 32.990 C 325.167 33.087,325.298 33.164,325.458 33.162 C 325.730 33.157,325.729 33.144,325.448 32.981 C 325.281 32.884,325.080 32.643,325.000 32.444 C 324.865 32.110,324.854 32.118,324.844 32.552 M195.417 32.833 C 195.097 33.187,195.293 33.307,195.633 32.967 C 195.789 32.811,195.878 32.811,196.033 32.967 C 196.374 33.307,196.570 33.187,196.250 32.833 C 196.084 32.650,195.897 32.500,195.833 32.500 C 195.770 32.500,195.583 32.650,195.417 32.833 M324.167 32.942 C 323.767 33.153,323.765 33.162,324.115 33.164 C 324.316 33.166,324.530 33.087,324.590 32.989 C 324.759 32.716,324.624 32.701,324.167 32.942 M164.750 33.000 C 164.807 33.092,165.017 33.166,165.218 33.164 C 165.515 33.162,165.537 33.131,165.333 33.000 C 165.005 32.788,164.619 32.788,164.750 33.000 M170.500 33.000 C 170.500 33.092,170.819 33.159,171.208 33.150 C 171.810 33.136,171.854 33.113,171.500 33.000 C 170.900 32.808,170.500 32.808,170.500 33.000 M147.833 33.148 C 148.003 33.271,148.017 33.329,147.875 33.331 C 147.756 33.332,147.672 33.530,147.680 33.792 C 147.687 34.047,147.733 34.139,147.783 34.000 C 147.833 33.862,148.033 33.620,148.228 33.462 C 148.424 33.304,148.496 33.172,148.389 33.170 C 148.282 33.168,148.057 33.122,147.889 33.068 C 147.635 32.985,147.625 32.999,147.833 33.148 M242.874 36.333 C 242.836 39.752,242.894 40.333,243.269 40.333 C 243.571 40.333,243.563 40.093,243.253 39.836 C 243.054 39.671,242.998 39.001,242.958 36.357 L 242.909 33.083 242.874 36.333 M305.214 33.945 C 305.053 34.288,305.059 34.346,305.249 34.274 C 305.402 34.215,305.503 34.335,305.548 34.634 C 305.595 34.944,305.624 34.866,305.642 34.385 C 305.671 33.555,305.488 33.366,305.214 33.945 M164.333 36.713 C 164.333 38.931,164.285 39.495,164.066 39.807 C 163.741 40.272,163.931 40.548,164.264 40.093 C 164.493 39.780,164.638 34.000,164.417 34.000 C 164.371 34.000,164.333 35.221,164.333 36.713 M203.000 34.495 C 203.000 34.584,202.887 34.613,202.748 34.559 C 202.399 34.425,201.960 34.829,202.056 35.197 C 202.100 35.364,202.067 35.500,201.984 35.500 C 201.901 35.500,201.841 35.669,201.849 35.875 C 201.862 36.178,201.918 36.132,202.140 35.633 C 202.292 35.294,202.585 34.939,202.791 34.845 C 203.116 34.697,203.324 34.333,203.083 34.333 C 203.037 34.333,203.000 34.406,203.000 34.495 M228.334 34.593 C 228.333 34.989,228.755 35.634,228.912 35.477 C 228.970 35.419,228.864 35.119,228.676 34.810 C 228.401 34.360,228.334 34.317,228.334 34.593 M146.673 34.822 C 146.446 35.246,146.453 35.667,146.686 35.667 C 146.789 35.667,146.834 35.520,146.787 35.339 C 146.736 35.145,146.779 35.026,146.892 35.047 C 146.997 35.067,147.065 34.992,147.044 34.881 C 147.019 34.756,147.110 34.719,147.279 34.784 C 147.464 34.855,147.515 34.826,147.434 34.695 C 147.250 34.398,146.865 34.462,146.673 34.822 M305.500 35.718 C 305.500 36.281,305.890 36.744,306.249 36.607 C 306.533 36.498,306.533 36.479,306.250 36.167 C 306.088 35.988,305.897 35.877,305.827 35.921 C 305.756 35.965,305.737 35.850,305.785 35.667 C 305.834 35.480,305.790 35.333,305.686 35.333 C 305.584 35.333,305.500 35.506,305.500 35.718 M311.340 35.417 C 311.341 35.508,311.604 35.865,311.923 36.208 C 312.496 36.824,312.811 37.032,312.556 36.625 C 312.484 36.510,312.446 36.288,312.472 36.131 C 312.504 35.937,312.368 35.808,312.051 35.730 C 311.794 35.667,311.528 35.533,311.461 35.433 C 311.390 35.327,311.339 35.321,311.340 35.417 M183.248 36.022 C 183.431 36.239,183.601 36.450,183.627 36.490 C 183.653 36.530,183.646 36.380,183.612 36.157 C 183.576 35.920,183.418 35.724,183.234 35.689 C 182.928 35.630,182.929 35.642,183.248 36.022 M195.503 35.833 C 195.514 36.252,195.821 36.345,196.140 36.027 L 196.485 35.681 195.993 35.716 C 195.722 35.735,195.502 35.787,195.503 35.833 M228.647 35.792 C 228.636 35.860,228.636 35.973,228.647 36.042 C 228.658 36.110,228.592 36.167,228.500 36.167 C 228.408 36.167,228.334 36.335,228.334 36.542 C 228.335 36.874,228.373 36.854,228.667 36.371 C 228.850 36.071,229.000 35.790,229.000 35.746 C 229.000 35.614,228.668 35.657,228.647 35.792 M254.701 36.207 L 254.888 36.831 255.203 36.313 C 255.521 35.791,255.508 35.539,255.175 35.745 C 255.076 35.806,255.038 35.926,255.090 36.012 C 255.263 36.291,254.959 36.174,254.734 35.875 C 254.549 35.630,254.544 35.682,254.701 36.207 M267.582 36.022 C 267.764 36.239,267.934 36.450,267.960 36.490 C 267.986 36.530,267.980 36.380,267.946 36.157 C 267.910 35.920,267.751 35.724,267.567 35.689 C 267.261 35.630,267.262 35.642,267.582 36.022 M279.444 35.833 C 279.643 35.913,279.885 36.115,279.983 36.281 C 280.137 36.543,280.182 36.550,280.326 36.333 C 280.452 36.142,280.413 36.071,280.160 36.030 C 279.978 36.000,279.871 35.907,279.924 35.821 C 279.977 35.736,279.809 35.671,279.552 35.677 C 279.118 35.687,279.110 35.699,279.444 35.833 M285.485 35.812 C 285.705 35.874,285.944 36.073,286.015 36.254 C 286.085 36.435,286.149 36.496,286.155 36.389 C 286.182 35.934,285.944 35.667,285.524 35.683 L 285.083 35.700 285.485 35.812 M201.875 36.917 C 201.877 37.283,201.911 37.414,201.951 37.206 C 201.991 36.999,201.990 36.699,201.948 36.540 C 201.906 36.380,201.874 36.550,201.875 36.917 M318.332 36.837 C 318.217 37.114,318.002 37.409,317.853 37.493 C 317.612 37.628,317.617 37.657,317.899 37.766 C 318.297 37.919,318.667 37.455,318.667 36.801 C 318.667 36.203,318.591 36.211,318.332 36.837 M189.601 36.970 C 189.529 37.182,189.233 37.501,188.943 37.678 C 188.471 37.966,188.455 37.999,188.792 37.999 C 188.998 38.000,189.167 37.927,189.167 37.839 C 189.167 37.750,189.292 37.725,189.446 37.784 C 189.654 37.864,189.698 37.823,189.622 37.623 C 189.565 37.476,189.598 37.328,189.695 37.296 C 189.792 37.264,189.840 37.090,189.801 36.910 C 189.737 36.610,189.720 36.615,189.601 36.970 M286.013 37.203 C 286.006 37.360,285.794 37.601,285.542 37.738 C 285.116 37.969,285.109 37.987,285.452 37.993 C 285.841 38.000,286.246 37.457,286.107 37.116 C 286.063 37.006,286.020 37.045,286.013 37.203 M189.833 37.688 C 189.833 37.873,190.252 38.056,190.489 37.974 C 190.581 37.942,190.471 37.830,190.245 37.724 C 190.015 37.616,189.833 37.600,189.833 37.688 M249.000 37.638 C 249.000 37.820,249.397 38.000,249.797 38.000 C 250.143 38.000,249.878 37.743,249.375 37.591 C 249.168 37.528,249.000 37.549,249.000 37.638 M318.861 37.667 C 318.910 37.817,319.171 37.927,319.513 37.942 C 319.910 37.960,319.957 37.943,319.667 37.885 C 319.438 37.839,319.144 37.715,319.015 37.609 C 318.829 37.457,318.796 37.469,318.861 37.667 M330.519 37.848 C 330.509 37.994,330.237 38.352,329.917 38.644 C 329.596 38.936,329.333 39.265,329.333 39.374 C 329.333 39.484,329.445 39.414,329.582 39.219 C 329.744 38.988,329.945 38.894,330.158 38.949 C 330.516 39.043,330.766 38.464,330.617 37.888 C 330.558 37.656,330.534 37.647,330.519 37.848 M201.841 38.111 C 201.830 38.611,202.005 39.017,202.184 38.906 C 202.266 38.855,202.333 38.893,202.333 38.990 C 202.333 39.087,202.540 39.159,202.792 39.150 L 203.250 39.133 202.833 39.018 C 202.588 38.950,202.300 38.665,202.133 38.326 C 201.904 37.861,201.848 37.820,201.841 38.111 M306.673 38.425 C 306.665 38.863,306.974 39.170,307.408 39.155 C 307.725 39.144,307.727 39.134,307.440 39.021 C 307.270 38.954,307.029 38.716,306.905 38.491 C 306.697 38.117,306.678 38.112,306.673 38.425 M262.167 38.738 C 262.167 38.869,262.298 39.010,262.458 39.052 C 262.736 39.124,262.736 39.129,262.458 39.147 C 262.298 39.158,262.167 39.235,262.167 39.318 C 262.167 39.402,262.435 39.386,262.771 39.283 L 263.376 39.098 262.938 38.952 C 262.697 38.871,262.500 38.737,262.500 38.653 C 262.500 38.569,262.425 38.500,262.333 38.500 C 262.242 38.500,262.167 38.607,262.167 38.738 M147.427 39.417 C 147.345 39.692,147.293 39.978,147.310 40.054 C 147.327 40.130,147.272 40.148,147.186 40.095 C 147.101 40.043,146.855 40.070,146.640 40.156 C 146.274 40.303,146.283 40.313,146.786 40.323 C 147.383 40.335,147.728 39.911,147.631 39.283 C 147.582 38.961,147.557 38.978,147.427 39.417 M233.058 39.257 C 233.003 39.399,233.006 39.561,233.063 39.618 C 233.120 39.675,233.167 39.603,233.167 39.457 C 233.167 39.311,233.298 39.157,233.458 39.115 C 233.732 39.043,233.731 39.037,233.453 39.019 C 233.290 39.009,233.112 39.116,233.058 39.257 M191.001 39.426 C 191.000 39.823,191.422 40.467,191.579 40.310 C 191.637 40.252,191.531 39.952,191.343 39.644 C 191.068 39.193,191.001 39.150,191.001 39.426 M274.042 39.917 C 274.044 40.283,274.078 40.414,274.118 40.206 C 274.158 39.999,274.156 39.699,274.115 39.540 C 274.073 39.380,274.040 39.550,274.042 39.917 M275.559 39.585 C 275.411 39.972,275.816 40.333,276.395 40.332 L 276.917 40.331 276.427 40.008 C 276.158 39.831,275.877 39.723,275.804 39.768 C 275.731 39.814,275.715 39.734,275.770 39.592 C 275.824 39.450,275.821 39.333,275.763 39.333 C 275.704 39.333,275.613 39.447,275.559 39.585 M170.346 39.778 C 170.339 39.976,170.240 40.177,170.125 40.223 C 169.962 40.289,169.963 40.310,170.130 40.320 C 170.383 40.336,170.567 39.933,170.446 39.630 C 170.398 39.513,170.354 39.579,170.346 39.778 M316.057 39.922 C 315.950 40.152,315.934 40.333,316.021 40.333 C 316.206 40.333,316.389 39.915,316.307 39.678 C 316.276 39.586,316.163 39.696,316.057 39.922 M248.451 40.005 C 248.210 40.287,248.206 40.333,248.424 40.333 C 248.563 40.333,248.722 40.218,248.776 40.076 C 248.929 39.678,248.762 39.642,248.451 40.005 M307.833 39.897 C 307.833 40.034,307.908 40.193,308.000 40.250 C 308.092 40.307,308.167 40.241,308.167 40.103 C 308.167 39.966,308.092 39.807,308.000 39.750 C 307.908 39.693,307.833 39.759,307.833 39.897 M328.997 39.921 C 328.881 40.060,328.831 40.220,328.886 40.275 C 329.056 40.445,329.500 40.191,329.500 39.922 C 329.500 39.595,329.267 39.595,328.997 39.921 M153.287 40.908 C 153.122 41.254,153.072 41.504,153.174 41.470 C 153.276 41.436,153.346 41.344,153.332 41.264 C 153.317 41.185,153.394 41.066,153.502 40.999 C 153.611 40.932,153.673 40.744,153.641 40.581 C 153.600 40.368,153.501 40.459,153.287 40.908 M204.333 40.655 C 204.333 40.832,204.451 41.094,204.595 41.238 C 204.889 41.532,205.584 41.603,205.410 41.322 C 205.349 41.224,205.191 41.186,205.058 41.237 C 204.922 41.289,204.861 41.257,204.919 41.164 C 204.975 41.072,204.909 40.954,204.771 40.902 C 204.634 40.849,204.562 40.699,204.612 40.570 C 204.662 40.440,204.619 40.333,204.518 40.333 C 204.416 40.333,204.333 40.478,204.333 40.655 M149.000 40.883 C 149.000 41.193,149.349 41.500,149.700 41.500 C 150.098 41.500,150.078 41.369,149.625 40.991 C 149.180 40.619,149.000 40.588,149.000 40.883 M273.874 40.996 C 273.621 41.402,273.615 41.500,273.843 41.500 C 273.940 41.500,273.977 41.431,273.925 41.348 C 273.874 41.264,273.918 41.166,274.024 41.131 C 274.130 41.096,274.186 40.976,274.149 40.865 C 274.107 40.738,274.006 40.786,273.874 40.996 M208.730 41.092 C 208.785 41.234,208.761 41.308,208.676 41.256 C 208.592 41.204,208.471 41.245,208.408 41.347 C 208.336 41.463,208.409 41.510,208.603 41.472 C 208.943 41.407,209.144 40.833,208.828 40.833 C 208.718 40.833,208.675 40.948,208.730 41.092 M78.262 42.095 C 78.118 42.239,78.005 42.483,78.011 42.637 C 78.018 42.835,78.065 42.806,78.173 42.538 C 78.257 42.329,78.496 42.090,78.704 42.007 C 78.973 41.899,79.002 41.851,78.804 41.844 C 78.650 41.838,78.406 41.951,78.262 42.095 M262.167 42.482 C 262.167 42.638,262.563 42.833,262.879 42.833 C 262.981 42.833,262.918 42.723,262.740 42.589 C 262.367 42.307,262.167 42.269,262.167 42.482 M263.333 43.590 C 263.333 43.730,263.449 43.888,263.591 43.942 C 263.989 44.095,264.025 43.929,263.662 43.618 C 263.380 43.376,263.333 43.372,263.333 43.590 M108.659 52.652 C 108.884 53.073,109.213 53.114,109.135 52.710 C 109.105 52.551,108.943 52.394,108.776 52.362 C 108.516 52.312,108.499 52.354,108.659 52.652 " stroke="none" fill="#000000" fill-rule="evenodd"></path><path id="path1" d="M81.894 8.084 C 82.498 8.400,82.681 8.396,82.260 8.078 C 82.082 7.943,81.819 7.834,81.676 7.834 C 81.534 7.835,81.631 7.947,81.894 8.084 M116.261 7.983 C 116.084 8.052,116.010 8.153,116.096 8.206 C 116.183 8.260,116.398 8.198,116.575 8.069 C 116.921 7.816,116.783 7.779,116.261 7.983 M115.494 8.424 C 115.324 8.628,115.323 8.722,115.488 8.882 C 115.651 9.041,115.683 9.013,115.639 8.750 C 115.604 8.542,115.666 8.434,115.804 8.462 C 115.925 8.488,115.977 8.431,115.919 8.337 C 115.781 8.113,115.746 8.120,115.494 8.424 M89.333 8.833 C 89.235 9.017,89.218 9.167,89.294 9.167 C 89.471 9.167,89.833 8.809,89.833 8.633 C 89.833 8.375,89.509 8.504,89.333 8.833 M99.375 9.086 C 99.375 9.426,99.419 9.469,99.606 9.314 C 99.781 9.169,99.791 9.067,99.648 8.895 C 99.394 8.588,99.375 8.601,99.375 9.086 M82.667 10.677 C 82.667 10.774,82.742 10.807,82.833 10.750 C 82.925 10.693,83.000 10.731,83.000 10.833 C 83.000 10.936,83.088 10.965,83.195 10.899 C 83.331 10.815,83.353 10.875,83.268 11.098 C 83.168 11.361,83.185 11.378,83.365 11.197 C 83.545 11.016,83.527 10.936,83.260 10.739 C 82.876 10.456,82.667 10.434,82.667 10.677 M88.158 11.259 C 87.938 11.494,87.870 11.642,88.008 11.589 C 88.224 11.506,88.764 10.833,88.614 10.833 C 88.583 10.833,88.378 11.025,88.158 11.259 M105.867 11.867 C 105.623 12.110,105.607 12.333,105.833 12.333 C 105.925 12.333,105.981 12.240,105.958 12.125 C 105.935 12.010,106.010 11.935,106.125 11.958 C 106.240 11.981,106.333 11.925,106.333 11.833 C 106.333 11.607,106.110 11.623,105.867 11.867 M86.999 13.584 C 86.784 13.813,86.685 14.000,86.778 14.000 C 86.991 14.000,87.583 13.360,87.472 13.250 C 87.427 13.205,87.214 13.355,86.999 13.584 M102.582 13.501 C 102.137 13.993,102.375 14.071,102.834 13.583 C 103.049 13.354,103.148 13.167,103.055 13.167 C 102.961 13.167,102.749 13.317,102.582 13.501 M85.873 15.611 C 85.627 15.710,85.260 16.336,85.452 16.328 C 85.524 16.325,85.718 16.138,85.883 15.911 C 86.047 15.685,86.160 15.506,86.133 15.513 C 86.106 15.520,85.989 15.564,85.873 15.611 M74.505 17.613 C 74.499 17.867,74.966 18.335,75.220 18.328 C 75.328 18.325,75.288 18.248,75.130 18.156 C 74.973 18.064,74.769 17.861,74.677 17.703 C 74.585 17.546,74.508 17.505,74.505 17.613 M74.865 17.677 C 74.905 17.797,75.036 17.929,75.156 17.969 C 75.281 18.010,75.344 17.948,75.302 17.823 C 75.262 17.703,75.131 17.571,75.010 17.531 C 74.885 17.490,74.823 17.552,74.865 17.677 M119.163 18.087 C 119.047 18.227,118.999 18.388,119.056 18.444 C 119.177 18.565,119.667 18.193,119.667 17.980 C 119.667 17.750,119.395 17.808,119.163 18.087 M111.432 21.396 C 111.487 21.539,111.581 21.650,111.641 21.642 C 111.985 21.596,112.171 21.691,112.067 21.859 C 111.988 21.987,112.022 22.006,112.169 21.915 C 112.330 21.816,112.361 21.855,112.284 22.056 C 112.225 22.209,112.255 22.333,112.351 22.333 C 112.708 22.333,112.396 21.757,111.874 21.452 C 111.425 21.189,111.349 21.180,111.432 21.396 M76.622 23.561 C 76.666 23.791,76.861 24.116,77.056 24.282 C 77.400 24.574,77.403 24.574,77.171 24.275 C 77.039 24.105,76.914 23.852,76.894 23.711 C 76.873 23.571,76.786 23.386,76.699 23.299 C 76.600 23.200,76.571 23.297,76.622 23.561 M135.743 26.208 C 135.699 26.323,135.682 29.529,135.706 33.333 L 135.750 40.250 141.083 40.239 C 146.191 40.229,147.354 40.184,147.257 40.000 C 147.233 39.954,147.312 39.692,147.432 39.417 L 147.652 38.917 147.659 39.425 C 147.669 40.084,147.935 40.333,148.627 40.333 C 148.957 40.333,149.144 40.402,149.083 40.500 C 149.027 40.592,149.042 40.667,149.117 40.667 C 149.192 40.667,149.441 40.840,149.670 41.053 C 150.156 41.504,152.984 41.630,153.125 41.207 C 153.164 41.092,153.275 41.047,153.373 41.108 C 153.473 41.170,153.503 41.140,153.442 41.041 C 153.080 40.456,153.489 40.333,155.809 40.331 C 158.813 40.327,158.513 40.916,158.461 35.131 C 158.413 29.802,158.342 29.398,157.491 29.621 C 157.245 29.685,157.167 29.620,157.167 29.353 C 157.167 28.774,157.159 28.758,156.781 28.555 C 155.438 27.836,148.628 28.437,148.939 29.247 C 148.987 29.374,148.833 29.506,148.553 29.576 C 147.738 29.780,147.667 29.938,147.667 31.517 C 147.667 32.973,147.673 32.995,148.106 33.104 C 148.541 33.213,148.542 33.217,148.207 33.482 C 148.021 33.629,147.818 33.919,147.757 34.125 C 147.695 34.331,147.570 34.500,147.479 34.500 C 147.388 34.500,147.368 34.588,147.434 34.695 C 147.515 34.826,147.464 34.855,147.279 34.784 C 147.110 34.719,147.019 34.756,147.044 34.881 C 147.065 34.992,146.997 35.067,146.892 35.047 C 146.779 35.026,146.736 35.145,146.787 35.339 C 146.834 35.519,146.797 35.667,146.705 35.667 C 146.612 35.667,146.541 35.760,146.545 35.875 C 146.549 35.990,146.541 36.271,146.526 36.500 L 146.500 36.917 143.417 36.868 L 140.333 36.819 140.333 31.610 C 140.333 27.780,140.280 26.347,140.133 26.200 C 139.847 25.914,135.853 25.921,135.743 26.208 M177.944 26.111 C 177.730 26.326,177.816 39.916,178.033 40.133 C 178.318 40.418,186.849 40.418,187.133 40.133 C 187.243 40.023,187.333 39.761,187.333 39.550 C 187.333 39.198,187.531 39.104,188.106 39.181 C 188.295 39.206,188.495 38.762,188.497 38.309 C 188.500 37.874,188.879 37.572,189.186 37.762 C 189.272 37.815,189.321 37.759,189.296 37.637 C 189.271 37.516,189.349 37.437,189.471 37.462 C 189.592 37.488,189.648 37.438,189.595 37.353 C 189.542 37.267,189.553 37.059,189.620 36.890 C 189.719 36.638,189.756 36.672,189.829 37.083 C 189.892 37.446,190.066 37.649,190.458 37.822 C 190.892 38.013,191.000 38.157,191.000 38.549 C 191.000 38.818,191.160 39.323,191.356 39.672 L 191.713 40.306 196.608 40.326 L 201.503 40.346 201.668 39.912 C 201.759 39.674,201.839 39.089,201.847 38.614 C 201.860 37.753,201.861 37.752,202.081 38.250 C 202.202 38.525,202.265 38.808,202.221 38.879 C 202.178 38.950,202.204 38.998,202.279 38.984 C 202.977 38.863,203.167 39.009,203.167 39.667 C 203.167 40.033,203.223 40.324,203.292 40.314 C 203.928 40.213,204.692 40.361,204.612 40.570 C 204.562 40.699,204.634 40.849,204.771 40.902 C 204.910 40.955,204.968 41.084,204.901 41.191 C 204.826 41.314,204.855 41.340,204.982 41.261 C 205.091 41.194,205.272 41.211,205.382 41.300 C 205.551 41.436,208.242 41.467,208.500 41.336 C 208.546 41.313,208.637 41.302,208.702 41.312 C 208.768 41.321,208.779 41.218,208.726 41.081 C 208.674 40.945,208.712 40.833,208.810 40.833 C 208.909 40.833,208.946 40.721,208.894 40.583 C 208.811 40.368,209.147 40.333,211.322 40.333 L 213.845 40.333 213.826 35.099 C 213.805 29.338,213.872 29.707,212.833 29.607 C 212.696 29.594,212.575 29.411,212.564 29.201 C 212.525 28.435,212.166 28.361,208.516 28.362 C 204.987 28.364,204.420 28.456,204.377 29.030 C 204.345 29.448,204.252 29.549,203.872 29.577 C 203.236 29.624,203.167 29.815,203.167 31.510 C 203.167 32.421,203.223 33.158,203.292 33.147 C 203.745 33.075,204.069 33.181,203.841 33.325 C 203.708 33.409,203.541 33.442,203.470 33.398 C 203.398 33.354,203.290 33.628,203.230 34.006 C 203.150 34.507,203.012 34.744,202.726 34.874 C 202.510 34.973,202.333 35.158,202.333 35.287 C 202.333 35.420,202.251 35.469,202.141 35.401 C 202.022 35.327,201.994 35.355,202.067 35.473 C 202.132 35.578,202.108 35.796,202.014 35.957 C 201.895 36.162,201.842 34.805,201.838 31.447 C 201.832 25.508,202.051 26.000,199.417 26.000 C 197.035 26.000,197.000 26.022,197.000 27.489 L 197.000 28.333 194.792 28.359 C 193.577 28.373,192.508 28.398,192.417 28.416 C 191.831 28.528,191.362 28.864,191.268 29.238 C 191.209 29.474,191.049 29.667,190.913 29.667 C 190.778 29.667,190.685 29.723,190.708 29.792 C 190.730 29.860,190.543 30.186,190.291 30.516 C 190.039 30.845,189.833 31.326,189.833 31.585 C 189.833 32.126,189.625 32.021,189.583 31.459 C 189.568 31.253,189.450 31.077,189.320 31.068 C 188.517 31.010,188.500 30.997,188.497 30.458 C 188.495 29.920,188.309 29.459,188.106 29.486 C 187.513 29.565,187.333 29.471,187.333 29.079 C 187.333 28.472,186.804 28.333,184.489 28.333 L 182.500 28.333 182.500 27.429 C 182.500 26.078,182.364 26.000,180.016 26.000 C 178.938 26.000,178.006 26.050,177.944 26.111 M221.367 26.200 C 221.079 26.487,221.079 39.846,221.367 40.133 C 221.514 40.281,223.018 40.333,227.096 40.333 C 233.074 40.333,233.064 40.335,233.078 39.439 C 233.082 39.204,233.197 39.075,233.417 39.059 C 233.600 39.046,233.875 39.027,234.028 39.018 C 234.562 38.984,234.473 32.958,233.930 32.415 C 233.702 32.187,233.380 31.997,233.216 31.992 C 233.022 31.988,233.092 31.908,233.417 31.766 C 233.692 31.645,233.957 31.568,234.006 31.594 C 234.131 31.662,234.184 31.145,234.227 29.417 C 234.265 27.853,234.015 27.250,233.327 27.250 C 233.191 27.250,233.081 27.093,233.078 26.894 C 233.064 25.999,233.074 26.000,227.096 26.000 C 223.018 26.000,221.514 26.052,221.367 26.200 M243.276 26.447 C 243.031 26.771,242.985 27.094,243.029 28.173 L 243.083 29.501 241.167 29.516 C 240.112 29.524,238.537 29.522,237.667 29.511 C 235.465 29.483,235.655 28.949,235.706 35.011 L 235.750 40.250 237.775 40.297 C 240.480 40.359,240.333 40.544,240.333 37.071 C 240.333 34.157,240.303 34.264,241.110 34.286 C 241.217 34.289,241.352 34.038,241.410 33.729 C 241.511 33.190,241.546 33.167,242.258 33.167 L 243.000 33.167 243.000 36.349 C 243.000 40.514,242.822 40.268,245.870 40.318 C 247.896 40.352,248.180 40.322,248.410 40.053 C 248.815 39.580,248.831 26.772,248.427 26.301 C 247.966 25.761,243.702 25.882,243.276 26.447 M256.342 26.317 C 256.245 26.497,256.167 27.025,256.167 27.489 L 256.167 28.333 254.083 28.358 C 252.938 28.372,251.906 28.391,251.792 28.400 C 251.506 28.423,251.339 28.682,251.336 29.106 C 251.334 29.380,251.200 29.488,250.756 29.571 C 250.258 29.665,250.164 29.759,250.069 30.268 C 249.993 30.672,249.837 30.904,249.573 31.004 C 248.948 31.242,248.871 31.619,248.914 34.250 C 248.964 37.281,248.979 37.368,249.491 37.605 C 249.753 37.726,249.963 38.024,250.080 38.438 C 250.179 38.793,250.352 39.093,250.464 39.104 C 250.575 39.116,250.817 39.134,251.000 39.146 C 251.228 39.160,251.334 39.286,251.336 39.542 C 251.341 40.345,251.319 40.342,256.178 40.294 L 260.750 40.250 260.750 33.167 L 260.750 26.083 258.633 26.037 C 256.675 25.994,256.504 26.015,256.342 26.317 M293.193 26.174 C 292.978 26.262,292.747 26.300,292.679 26.258 C 292.463 26.124,292.449 26.543,292.449 33.167 C 292.449 36.742,292.473 39.763,292.502 39.881 C 292.571 40.157,292.656 40.168,295.351 40.271 C 298.296 40.384,298.167 40.505,298.167 37.655 L 298.167 35.500 300.917 35.479 C 302.429 35.468,303.760 35.449,303.875 35.438 C 304.078 35.417,304.102 35.348,304.146 34.678 C 304.160 34.458,304.311 34.339,304.621 34.303 C 304.905 34.270,305.152 34.096,305.279 33.839 C 305.556 33.282,305.745 33.746,305.620 34.675 C 305.567 35.070,305.600 35.333,305.702 35.333 C 305.796 35.333,305.833 35.483,305.785 35.667 C 305.737 35.850,305.756 35.965,305.827 35.921 C 305.897 35.877,306.090 35.989,306.254 36.171 C 306.418 36.352,306.484 36.501,306.401 36.503 C 306.318 36.504,306.337 36.560,306.443 36.628 C 306.549 36.695,306.671 37.095,306.715 37.517 C 306.819 38.511,307.057 38.936,307.585 39.069 C 307.820 39.128,307.998 39.268,307.980 39.380 C 307.839 40.279,307.966 40.307,312.081 40.277 L 315.912 40.250 316.148 39.750 C 316.420 39.175,316.664 38.972,316.953 39.078 C 317.203 39.169,317.381 38.900,317.441 38.343 C 317.465 38.111,317.564 37.895,317.661 37.863 C 317.757 37.831,317.785 37.724,317.724 37.624 C 317.654 37.511,317.711 37.481,317.877 37.545 C 318.026 37.602,318.239 37.528,318.363 37.375 C 318.523 37.177,318.526 37.137,318.375 37.228 C 318.100 37.393,318.112 37.255,318.426 36.648 C 318.776 35.971,318.649 31.388,318.286 31.612 C 318.208 31.661,318.104 31.548,318.056 31.362 C 318.002 31.157,317.875 31.059,317.734 31.113 C 317.582 31.171,317.500 31.087,317.500 30.876 C 317.500 30.349,317.165 29.540,316.949 29.546 C 316.282 29.567,316.131 29.489,316.215 29.167 C 316.263 28.983,316.230 28.833,316.141 28.833 C 316.053 28.833,316.017 28.774,316.061 28.702 C 316.203 28.474,315.340 28.416,312.000 28.432 C 308.364 28.450,308.130 28.479,308.064 28.930 C 308.013 29.279,307.417 29.833,307.093 29.833 C 306.981 29.833,306.878 29.927,306.865 30.042 C 306.851 30.156,306.811 30.438,306.775 30.667 C 306.739 30.896,306.700 31.373,306.688 31.726 C 306.671 32.234,306.612 32.348,306.408 32.270 C 306.266 32.215,306.190 32.236,306.240 32.316 C 306.347 32.490,305.930 32.874,305.788 32.732 C 305.734 32.678,305.730 32.791,305.781 32.984 C 305.833 33.185,305.793 33.333,305.686 33.333 C 305.557 33.333,305.499 32.529,305.498 30.708 C 305.495 27.789,305.369 27.284,304.621 27.197 C 304.311 27.161,304.160 27.042,304.146 26.822 C 304.134 26.645,304.116 26.406,304.104 26.292 C 304.078 26.031,293.813 25.921,293.193 26.174 M332.079 26.201 C 332.033 26.320,332.016 29.529,332.040 33.333 L 332.083 40.250 334.375 40.279 L 336.667 40.308 336.667 33.171 L 336.667 26.034 334.414 26.010 C 332.707 25.991,332.142 26.038,332.079 26.201 M105.105 28.087 C 105.049 28.234,104.937 28.314,104.857 28.264 C 104.673 28.151,104.127 28.738,104.277 28.889 C 104.339 28.950,104.309 29.000,104.212 29.000 C 104.115 29.000,103.992 29.113,103.939 29.252 C 103.872 29.426,103.996 29.390,104.341 29.135 C 104.863 28.749,105.414 28.025,105.284 27.895 C 105.242 27.853,105.162 27.939,105.105 28.087 M160.083 28.497 C 159.900 28.565,159.644 28.581,159.514 28.532 C 159.351 28.470,159.321 28.512,159.417 28.667 C 159.521 28.835,159.478 28.860,159.241 28.770 C 159.068 28.703,158.978 28.700,159.040 28.762 C 159.102 28.825,159.044 29.087,158.910 29.346 C 158.504 30.132,158.556 39.390,158.969 39.915 C 159.294 40.329,163.833 40.541,163.833 40.142 C 163.833 40.053,163.927 40.034,164.042 40.100 C 164.156 40.166,164.196 40.161,164.131 40.088 C 164.065 40.016,164.079 39.831,164.160 39.678 C 164.242 39.526,164.327 37.942,164.350 36.159 C 164.372 34.376,164.446 32.729,164.514 32.500 C 164.582 32.271,164.644 32.177,164.652 32.292 C 164.681 32.704,164.721 32.753,165.190 32.950 L 165.667 33.151 165.667 36.478 C 165.667 40.725,165.441 40.334,167.893 40.331 C 170.637 40.327,170.407 40.677,170.470 36.405 L 170.524 32.796 171.033 32.898 C 171.313 32.954,171.606 33.000,171.684 33.000 C 171.763 33.000,171.847 34.631,171.872 36.625 L 171.917 40.250 173.977 40.297 C 176.772 40.361,176.516 40.909,176.493 34.907 C 176.472 29.430,176.492 29.543,175.548 29.654 C 175.437 29.668,175.283 29.436,175.207 29.141 C 175.106 28.751,174.941 28.569,174.607 28.480 C 174.008 28.320,160.518 28.335,160.083 28.497 M263.893 28.630 C 263.696 28.788,263.485 29.085,263.423 29.292 C 263.317 29.648,263.238 29.694,262.680 29.734 C 262.331 29.760,262.290 30.205,262.235 34.489 C 262.181 38.693,262.237 38.969,263.151 39.013 C 263.297 39.020,263.154 39.120,262.833 39.237 L 262.250 39.448 262.235 40.879 L 262.220 42.310 262.777 42.609 C 263.083 42.774,263.333 43.002,263.333 43.115 C 263.333 43.857,263.861 43.964,267.591 43.979 C 271.569 43.995,271.667 43.980,271.667 43.350 C 271.667 42.989,271.771 42.871,272.208 42.743 C 272.641 42.615,272.761 42.483,272.807 42.084 C 272.867 41.550,273.120 41.289,273.458 41.413 C 273.573 41.455,273.667 41.412,273.667 41.318 C 273.667 41.224,273.729 41.186,273.806 41.233 C 273.882 41.280,273.956 41.191,273.970 41.034 C 274.046 40.171,274.103 39.329,274.133 38.635 C 274.168 37.817,274.191 37.802,275.189 37.981 C 275.248 37.991,275.346 38.339,275.408 38.753 C 275.482 39.241,275.586 39.466,275.706 39.393 C 275.829 39.316,275.850 39.383,275.770 39.593 C 275.703 39.765,275.702 39.854,275.767 39.789 C 275.832 39.724,276.130 39.823,276.430 40.008 C 276.932 40.319,277.235 40.343,280.321 40.326 L 283.667 40.308 283.667 39.737 C 283.667 39.285,283.736 39.162,284.000 39.146 C 284.183 39.134,284.424 39.116,284.535 39.104 C 284.647 39.093,284.809 38.835,284.896 38.532 C 284.994 38.191,285.234 37.888,285.527 37.736 C 285.787 37.602,286.011 37.362,286.024 37.204 C 286.074 36.586,286.002 36.102,285.834 35.934 C 285.472 35.572,280.179 35.616,280.403 35.979 C 280.444 36.045,280.408 36.208,280.322 36.341 C 280.139 36.627,279.774 36.231,279.953 35.941 C 280.007 35.853,279.984 35.824,279.901 35.875 C 279.818 35.926,279.525 35.869,279.250 35.747 C 278.814 35.555,279.203 35.525,282.271 35.514 C 286.433 35.498,286.187 35.623,286.075 33.572 C 285.971 31.659,285.951 31.510,285.817 31.594 C 285.651 31.696,285.316 31.239,285.455 31.101 C 285.520 31.036,285.444 31.032,285.287 31.092 C 285.064 31.178,284.994 31.106,284.975 30.768 C 284.961 30.529,284.942 30.240,284.933 30.125 C 284.916 29.904,284.640 29.529,284.500 29.536 C 283.852 29.565,283.667 29.469,283.667 29.104 C 283.667 28.441,283.376 28.373,280.411 28.343 C 277.317 28.312,276.765 28.417,276.601 29.071 C 276.533 29.345,276.378 29.500,276.175 29.500 C 275.750 29.500,275.333 29.939,275.333 30.388 C 275.333 30.993,274.178 31.279,274.136 30.683 C 274.004 28.847,273.946 28.626,273.569 28.529 C 272.548 28.265,264.240 28.352,263.893 28.630 M321.415 28.465 C 321.324 28.530,321.224 28.771,321.192 29.000 C 321.122 29.504,321.171 29.455,320.667 29.525 C 320.153 29.597,320.006 29.785,320.003 30.375 C 320.001 30.659,319.905 30.843,319.750 30.858 C 319.612 30.872,319.406 30.891,319.292 30.900 C 318.885 30.933,318.838 31.284,318.836 34.342 C 318.833 37.606,318.883 37.833,319.607 37.833 C 319.918 37.833,319.989 37.938,320.032 38.458 C 320.060 38.804,320.176 39.093,320.292 39.104 C 320.406 39.116,320.650 39.134,320.833 39.146 C 321.067 39.160,321.167 39.285,321.167 39.563 C 321.167 40.307,321.408 40.352,325.193 40.312 C 328.938 40.273,329.367 40.178,329.433 39.369 C 329.476 38.857,329.516 38.804,329.787 38.908 C 329.944 38.968,330.019 38.963,329.952 38.896 C 329.885 38.829,330.000 38.594,330.207 38.374 C 330.719 37.829,330.766 30.132,330.256 30.220 C 330.161 30.237,330.101 30.159,330.123 30.048 C 330.145 29.936,330.061 29.884,329.937 29.932 C 329.679 30.031,328.783 29.049,328.924 28.821 C 328.975 28.738,328.889 28.720,328.731 28.780 C 328.544 28.852,328.485 28.826,328.560 28.705 C 328.625 28.599,328.548 28.507,328.379 28.489 C 327.420 28.387,321.553 28.367,321.415 28.465 M85.908 29.545 C 85.864 29.661,85.848 31.630,85.872 33.920 L 85.917 38.083 86.000 33.708 C 86.082 29.429,86.075 29.112,85.908 29.545 M228.333 30.167 L 228.333 30.833 227.083 30.833 L 225.833 30.833 225.833 30.167 L 225.833 29.500 227.083 29.500 L 228.333 29.500 228.333 30.167 M299.626 29.708 C 299.529 29.972,300.193 30.630,300.464 30.540 C 300.575 30.503,300.667 30.597,300.667 30.750 C 300.667 30.903,300.575 30.997,300.464 30.960 C 300.193 30.870,299.529 31.528,299.626 31.792 C 299.680 31.939,299.478 32.000,298.934 32.000 L 298.167 32.000 298.167 30.750 L 298.167 29.500 298.934 29.500 C 299.478 29.500,299.680 29.561,299.626 29.708 M153.214 32.079 C 152.880 32.225,152.638 32.473,152.571 32.740 C 152.489 33.067,152.361 33.164,152.024 33.156 C 151.594 33.146,151.593 33.142,151.958 32.995 C 152.232 32.885,152.333 32.707,152.333 32.339 C 152.333 31.854,152.363 31.834,153.042 31.840 L 153.750 31.846 153.214 32.079 M183.864 32.467 C 183.886 32.760,183.963 33.009,184.035 33.021 C 184.108 33.032,184.242 33.060,184.333 33.083 C 184.425 33.106,184.612 33.134,184.750 33.146 C 185.231 33.186,185.100 35.667,184.617 35.667 C 184.117 35.667,183.835 35.963,183.828 36.492 C 183.824 36.862,183.801 36.879,183.653 36.624 C 183.559 36.463,183.535 36.245,183.600 36.140 C 183.668 36.029,183.645 35.994,183.545 36.056 C 183.449 36.115,183.282 36.056,183.173 35.925 C 183.065 35.794,182.869 35.728,182.738 35.778 C 182.543 35.852,182.500 35.611,182.500 34.452 C 182.500 33.024,182.688 32.621,183.207 32.942 C 183.312 33.006,183.336 32.972,183.266 32.859 C 183.201 32.753,183.218 32.667,183.305 32.667 C 183.393 32.667,183.513 32.470,183.573 32.230 C 183.709 31.689,183.811 31.772,183.864 32.467 M196.000 32.083 C 196.000 32.221,195.925 32.333,195.833 32.333 C 195.742 32.333,195.667 32.221,195.667 32.083 C 195.667 31.946,195.742 31.833,195.833 31.833 C 195.925 31.833,196.000 31.946,196.000 32.083 M208.860 32.011 C 208.645 32.097,208.410 32.131,208.337 32.086 C 208.194 31.997,207.948 32.617,207.989 32.958 C 208.003 33.073,207.880 33.166,207.716 33.164 C 207.488 33.162,207.470 33.128,207.639 33.020 C 207.762 32.943,207.855 32.832,207.848 32.773 C 207.738 31.954,207.828 31.833,208.542 31.844 C 209.154 31.853,209.197 31.876,208.860 32.011 M255.375 32.667 C 255.455 32.667,255.466 32.753,255.401 32.859 C 255.331 32.972,255.355 33.006,255.459 32.942 C 255.978 32.621,256.167 33.023,256.167 34.454 C 256.167 35.774,256.144 35.866,255.844 35.788 C 255.653 35.738,255.484 35.802,255.429 35.946 C 255.378 36.079,255.249 36.134,255.142 36.068 C 255.028 35.997,254.993 36.021,255.058 36.126 C 255.118 36.223,255.116 36.437,255.054 36.600 C 254.962 36.839,254.902 36.785,254.748 36.324 C 254.602 35.888,254.449 35.737,254.111 35.697 C 253.611 35.638,253.386 33.201,253.875 33.141 C 253.990 33.127,254.193 33.108,254.327 33.099 C 254.467 33.090,254.640 32.799,254.734 32.416 L 254.897 31.750 255.064 32.208 C 255.156 32.460,255.296 32.667,255.375 32.667 M268.792 33.060 L 269.333 33.215 269.333 34.441 C 269.333 35.538,269.300 35.667,269.014 35.667 C 268.393 35.667,268.167 35.860,268.162 36.393 C 268.157 36.831,268.129 36.869,267.986 36.624 C 267.892 36.463,267.868 36.245,267.933 36.140 C 268.002 36.029,267.978 35.994,267.878 36.056 C 267.783 36.115,267.615 36.056,267.507 35.925 C 267.398 35.794,267.202 35.728,267.071 35.778 C 266.877 35.852,266.833 35.611,266.833 34.452 C 266.833 33.024,267.022 32.621,267.541 32.942 C 267.645 33.006,267.669 32.972,267.599 32.859 C 267.534 32.753,267.552 32.667,267.639 32.667 C 267.726 32.667,267.856 32.460,267.928 32.208 L 268.059 31.750 268.154 32.328 C 268.233 32.803,268.346 32.933,268.792 33.060 M312.667 32.167 C 312.667 32.675,312.909 33.143,313.167 33.131 C 313.988 33.094,314.000 33.112,314.000 34.417 L 314.000 35.667 313.542 35.669 C 313.022 35.672,312.758 35.821,312.733 36.125 C 312.684 36.741,312.651 36.833,312.482 36.833 C 312.381 36.833,312.342 36.717,312.397 36.575 C 312.452 36.432,312.433 36.355,312.356 36.403 C 312.278 36.451,312.035 36.298,311.816 36.065 C 311.131 35.335,311.301 32.318,312.003 32.752 C 312.097 32.810,312.158 32.796,312.138 32.721 C 312.074 32.485,312.348 31.833,312.511 31.833 C 312.597 31.833,312.667 31.983,312.667 32.167 M325.075 32.847 C 325.042 32.901,325.124 32.957,325.257 32.972 C 325.391 32.987,325.612 33.012,325.750 33.028 C 326.127 33.070,326.113 35.588,325.735 35.733 C 325.589 35.789,325.420 35.805,325.360 35.768 C 325.219 35.683,324.922 36.021,324.900 36.292 C 324.857 36.832,324.785 36.874,324.689 36.417 C 324.608 36.036,324.454 35.879,324.042 35.757 L 323.500 35.598 323.500 34.412 C 323.500 33.235,323.504 33.225,324.042 32.988 C 324.448 32.810,324.599 32.625,324.647 32.250 L 324.710 31.750 324.922 32.250 C 325.039 32.525,325.107 32.794,325.075 32.847 M280.409 32.792 C 280.514 33.139,280.471 33.167,279.817 33.167 C 279.429 33.167,279.142 33.145,279.181 33.120 C 279.219 33.094,279.396 32.962,279.574 32.828 C 279.860 32.612,279.881 32.613,279.755 32.833 C 279.671 32.982,279.675 33.027,279.765 32.944 C 279.911 32.811,279.933 32.744,279.979 32.300 C 280.008 32.025,280.267 32.322,280.409 32.792 M196.240 32.822 C 196.400 32.999,196.637 33.104,196.766 33.054 C 196.955 32.982,197.000 33.223,197.000 34.316 C 197.000 35.405,196.952 35.667,196.750 35.667 C 196.612 35.667,196.341 35.826,196.147 36.020 C 195.810 36.357,195.512 36.252,195.503 35.792 C 195.501 35.723,195.444 35.676,195.375 35.686 C 194.560 35.815,194.500 35.720,194.500 34.314 C 194.500 33.056,194.523 32.967,194.824 33.046 C 195.016 33.096,195.263 33.003,195.433 32.815 C 195.790 32.421,195.878 32.422,196.240 32.822 M228.605 34.708 C 228.675 34.915,228.716 35.145,228.696 35.221 C 228.675 35.296,228.735 35.311,228.829 35.253 C 228.923 35.194,229.000 35.219,229.000 35.308 C 229.000 35.396,229.150 35.430,229.333 35.382 C 229.572 35.319,229.667 35.377,229.667 35.583 C 229.667 35.787,229.571 35.847,229.344 35.788 C 229.153 35.738,228.984 35.802,228.929 35.946 C 228.878 36.079,228.749 36.134,228.642 36.068 C 228.528 35.997,228.493 36.021,228.558 36.126 C 228.872 36.633,228.474 36.833,227.149 36.833 L 225.833 36.833 225.833 35.583 L 225.833 34.333 227.155 34.333 C 228.378 34.333,228.487 34.362,228.605 34.708 M112.757 35.989 C 112.693 36.092,112.750 36.124,112.897 36.068 C 113.058 36.006,113.236 36.151,113.410 36.486 C 113.556 36.769,113.718 37.000,113.770 37.000 C 113.930 37.000,113.259 35.947,113.055 35.880 C 112.950 35.844,112.816 35.894,112.757 35.989 M201.951 37.206 C 201.911 37.414,201.877 37.283,201.875 36.917 C 201.874 36.550,201.906 36.380,201.948 36.540 C 201.990 36.699,201.991 36.999,201.951 37.206 M153.129 36.788 C 152.788 36.824,152.188 36.824,151.796 36.789 C 151.404 36.754,151.683 36.724,152.417 36.724 C 153.150 36.723,153.471 36.752,153.129 36.788 M208.629 36.788 C 208.288 36.824,207.688 36.824,207.296 36.789 C 206.904 36.754,207.183 36.724,207.917 36.724 C 208.650 36.723,208.971 36.752,208.629 36.788 M78.416 42.334 C 77.970 42.827,78.209 42.904,78.667 42.416 C 78.882 42.187,78.982 42.000,78.888 42.000 C 78.795 42.000,78.582 42.150,78.416 42.334 M115.234 42.476 C 115.587 42.873,115.667 42.909,115.667 42.673 C 115.667 42.584,115.498 42.423,115.292 42.315 C 114.919 42.119,114.918 42.120,115.234 42.476 M85.833 50.149 C 85.833 50.261,85.756 50.306,85.663 50.247 C 85.569 50.189,85.512 50.241,85.538 50.363 C 85.563 50.484,85.497 50.567,85.391 50.547 C 85.285 50.527,85.157 50.617,85.107 50.748 C 85.033 50.942,85.089 50.952,85.415 50.804 C 85.811 50.623,86.089 50.200,85.921 50.032 C 85.873 49.984,85.833 50.036,85.833 50.149 M76.000 53.794 C 76.000 53.894,75.882 54.094,75.738 54.238 C 75.594 54.382,75.554 54.500,75.649 54.500 C 75.860 54.500,76.232 53.843,76.097 53.708 C 76.044 53.655,76.000 53.693,76.000 53.794 " stroke="none" fill="#666666" fill-rule="evenodd"></path><path id="path2" d="M72.125 7.945 C 71.874 8.013,71.833 8.240,71.833 9.586 C 71.833 11.194,71.896 11.352,72.573 11.457 C 73.006 11.525,72.976 11.428,73.015 12.884 C 73.034 13.595,73.114 14.218,73.194 14.267 C 73.274 14.316,73.294 14.428,73.240 14.516 C 73.186 14.604,73.372 14.756,73.654 14.854 C 74.134 15.021,74.167 15.087,74.179 15.891 C 74.199 17.197,74.640 18.284,74.882 17.624 C 74.942 17.461,75.007 17.463,75.186 17.632 C 75.378 17.814,75.375 17.872,75.165 18.004 C 74.999 18.109,74.986 18.162,75.125 18.164 C 75.264 18.166,75.333 18.447,75.333 19.005 C 75.333 20.102,75.705 21.000,76.158 21.000 C 76.465 21.000,76.500 21.103,76.500 22.006 C 76.500 22.651,76.597 23.159,76.769 23.423 C 76.917 23.648,76.981 23.833,76.910 23.833 C 76.839 23.833,76.920 23.986,77.089 24.173 C 77.257 24.359,77.494 24.474,77.614 24.428 C 77.782 24.364,77.834 24.608,77.836 25.464 C 77.839 26.741,77.934 26.967,78.507 27.054 C 78.895 27.112,78.919 27.183,78.965 28.354 L 79.013 29.593 78.340 29.529 C 77.818 29.479,77.667 29.395,77.667 29.155 C 77.667 28.742,77.228 28.530,76.101 28.397 C 75.355 28.310,75.167 28.227,75.167 27.989 C 75.167 27.359,74.716 27.167,73.238 27.167 L 71.833 27.167 71.833 32.262 C 71.833 38.088,71.752 37.778,73.318 37.941 C 73.872 37.999,74.298 38.092,74.265 38.148 C 74.006 38.592,74.530 38.977,75.542 39.085 C 76.528 39.191,76.620 39.236,76.794 39.698 C 76.898 39.973,77.056 40.152,77.146 40.096 C 77.237 40.040,77.357 40.071,77.415 40.164 C 77.473 40.257,77.855 40.333,78.265 40.333 C 78.822 40.333,79.038 40.407,79.121 40.625 C 79.318 41.146,79.604 41.309,80.602 41.469 L 81.583 41.626 80.417 41.647 C 79.293 41.666,79.233 41.688,78.785 42.250 C 78.330 42.820,78.292 42.833,77.110 42.833 C 75.814 42.833,75.500 42.986,75.500 43.617 C 75.500 43.971,75.429 44.000,74.574 44.000 C 71.799 44.000,71.840 43.910,71.882 49.851 L 71.917 54.750 73.323 54.786 C 74.772 54.823,75.607 54.542,75.969 53.894 C 76.062 53.728,76.388 53.646,76.976 53.641 C 78.091 53.633,78.746 53.455,78.766 53.154 C 78.814 52.445,79.009 52.334,80.226 52.317 C 81.798 52.295,82.216 52.165,82.334 51.661 C 82.424 51.279,82.512 51.247,83.590 51.205 C 84.496 51.169,84.809 51.088,85.021 50.837 C 85.170 50.659,85.334 50.556,85.384 50.607 C 85.435 50.658,85.575 50.542,85.695 50.350 C 85.867 50.075,86.092 49.996,86.748 49.983 C 88.015 49.958,88.409 49.804,88.467 49.309 C 88.516 48.897,88.569 48.878,89.921 48.783 C 91.519 48.670,91.919 48.511,92.064 47.934 C 92.165 47.533,94.668 47.155,94.667 47.542 C 94.667 47.610,94.488 47.667,94.270 47.667 C 93.878 47.667,93.464 47.999,93.514 48.274 C 93.658 49.078,93.473 50.000,93.167 50.000 C 92.983 50.000,92.833 50.079,92.833 50.177 C 92.833 50.274,92.762 50.309,92.675 50.255 C 92.410 50.092,92.167 50.763,92.167 51.656 C 92.167 52.371,92.119 52.500,91.854 52.500 C 91.487 52.500,91.094 52.914,91.238 53.148 C 91.294 53.237,91.272 53.352,91.190 53.402 C 90.833 53.623,91.255 54.581,91.757 54.688 C 92.766 54.905,101.000 54.848,101.003 54.625 C 101.004 54.487,101.058 54.501,101.163 54.667 C 101.301 54.885,101.359 54.879,101.619 54.619 C 101.879 54.359,101.885 54.301,101.667 54.163 C 101.501 54.058,101.487 54.004,101.625 54.003 C 101.740 54.001,101.833 53.896,101.833 53.768 C 101.833 53.641,102.023 53.488,102.256 53.430 C 102.746 53.307,103.000 52.760,103.000 51.826 C 103.000 51.264,103.060 51.158,103.429 51.065 C 103.932 50.939,104.167 50.423,104.167 49.440 C 104.167 48.789,104.208 48.723,104.708 48.576 C 105.219 48.426,105.259 48.357,105.404 47.375 C 105.558 46.337,105.560 46.333,106.113 46.333 L 106.667 46.333 106.667 47.260 C 106.667 48.690,106.962 49.651,107.437 49.770 C 107.829 49.868,107.916 50.151,107.844 51.094 C 107.788 51.820,108.127 52.333,108.663 52.333 L 109.167 52.333 109.167 53.482 C 109.167 54.376,109.225 54.653,109.430 54.732 C 109.872 54.902,118.945 54.846,119.406 54.671 C 120.183 54.375,119.846 51.770,119.002 51.549 C 118.712 51.473,118.666 51.322,118.664 50.439 C 118.661 49.282,118.556 49.032,118.039 48.953 C 117.541 48.877,117.553 48.907,117.455 47.479 C 117.358 46.074,117.167 45.576,116.667 45.417 C 116.396 45.331,116.333 45.163,116.331 44.530 C 116.328 43.413,116.181 43.010,115.737 42.898 C 115.135 42.747,115.022 42.499,114.986 41.240 C 114.941 39.722,114.792 39.333,114.255 39.333 C 113.847 39.333,113.833 39.297,113.833 38.260 C 113.833 37.079,113.329 35.902,112.895 36.069 C 112.721 36.135,112.662 35.949,112.647 35.286 C 112.615 33.884,112.469 33.444,112.001 33.333 C 111.762 33.277,111.563 33.097,111.534 32.909 C 111.499 32.690,111.528 32.650,111.623 32.787 C 111.787 33.025,112.297 33.137,113.292 33.154 C 113.958 33.166,114.000 33.195,114.000 33.647 C 114.000 34.199,114.287 34.327,115.524 34.331 C 116.227 34.333,116.308 34.375,116.412 34.790 C 116.475 35.041,116.614 35.303,116.722 35.371 C 117.047 35.578,119.413 35.520,119.633 35.300 C 119.893 35.041,119.922 25.741,119.664 25.582 C 119.571 25.524,119.532 25.416,119.579 25.341 C 119.674 25.186,119.276 24.808,119.059 24.847 C 118.091 25.021,117.358 24.810,117.182 24.306 C 117.081 24.016,116.949 23.828,116.890 23.888 C 116.830 23.948,116.693 23.924,116.586 23.835 C 116.384 23.668,115.830 23.534,115.248 23.512 C 115.063 23.506,114.836 23.331,114.742 23.125 C 114.648 22.919,114.480 22.769,114.369 22.792 C 114.258 22.815,114.167 22.771,114.167 22.694 C 114.167 22.545,114.140 22.538,112.970 22.396 C 112.414 22.329,112.214 22.238,112.274 22.080 C 112.321 21.958,112.203 21.776,112.013 21.674 C 111.822 21.572,111.667 21.543,111.667 21.609 C 111.667 21.676,111.573 21.608,111.458 21.458 C 111.344 21.308,110.987 21.156,110.667 21.119 C 110.346 21.083,110.627 21.041,111.292 21.027 C 112.564 20.999,112.548 21.010,112.545 20.125 C 112.544 19.877,112.717 19.830,113.688 19.813 C 115.614 19.777,116.167 19.595,116.167 18.994 C 116.167 18.688,117.357 18.511,118.458 18.654 C 118.573 18.669,118.673 18.547,118.680 18.382 C 118.687 18.218,118.729 18.172,118.773 18.280 C 118.822 18.401,119.041 18.279,119.343 17.963 L 119.833 17.451 119.833 12.739 L 119.833 8.026 119.338 7.918 C 118.639 7.764,116.980 7.850,116.583 8.061 C 116.400 8.158,116.194 8.222,116.125 8.202 C 116.056 8.183,116.000 8.242,116.000 8.333 C 116.000 8.425,115.906 8.481,115.792 8.458 C 115.677 8.435,115.606 8.522,115.634 8.651 C 115.711 9.010,115.339 9.160,114.333 9.176 C 113.161 9.194,112.794 9.344,112.719 9.835 C 112.641 10.352,112.765 10.310,111.199 10.347 C 110.443 10.366,109.783 10.446,109.734 10.526 C 109.684 10.606,109.574 10.629,109.488 10.576 C 109.403 10.523,109.324 10.597,109.313 10.740 C 109.253 11.483,109.264 11.476,108.078 11.524 C 107.531 11.547,106.993 11.632,106.882 11.714 C 106.772 11.795,106.603 11.814,106.507 11.755 C 106.412 11.695,106.333 11.726,106.333 11.823 C 106.333 11.921,106.240 11.981,106.125 11.958 C 106.010 11.935,105.935 12.010,105.958 12.125 C 105.981 12.240,105.921 12.333,105.823 12.333 C 105.726 12.333,105.693 12.408,105.750 12.500 C 105.813 12.602,105.540 12.672,105.052 12.680 C 103.381 12.709,103.208 12.774,103.124 13.406 C 103.050 13.956,102.996 13.973,101.119 14.015 C 99.764 14.045,99.482 14.204,99.590 14.875 C 99.632 15.133,99.480 15.167,98.285 15.167 C 97.053 15.167,96.674 14.971,97.583 14.805 C 97.807 14.764,97.910 14.621,97.897 14.372 C 97.886 14.167,97.942 14.000,98.022 14.000 C 98.101 14.000,98.167 13.662,98.167 13.250 C 98.167 12.704,98.235 12.494,98.417 12.479 C 98.554 12.468,98.753 12.449,98.859 12.438 C 98.965 12.426,99.073 12.304,99.099 12.167 C 99.126 12.029,99.189 11.729,99.240 11.500 C 99.440 10.595,99.371 8.126,99.141 7.979 C 99.018 7.900,96.892 7.854,94.417 7.876 L 89.917 7.917 89.865 8.542 C 89.818 9.105,89.766 9.167,89.341 9.167 C 88.794 9.167,88.667 9.401,88.667 10.410 C 88.667 11.146,88.434 11.491,87.883 11.570 C 87.645 11.605,87.573 11.797,87.532 12.513 C 87.477 13.470,87.159 14.000,86.641 14.000 C 86.472 14.000,86.342 14.056,86.353 14.125 C 86.364 14.194,86.357 14.287,86.339 14.333 C 86.320 14.379,86.280 14.657,86.249 14.951 C 86.137 16.035,85.020 16.943,84.979 15.984 C 84.968 15.718,84.940 15.425,84.917 15.333 C 84.894 15.242,84.866 14.979,84.854 14.750 C 84.842 14.513,84.743 14.351,84.625 14.375 C 84.510 14.398,84.435 14.323,84.458 14.208 C 84.483 14.086,84.328 14.000,84.083 14.000 C 83.676 14.000,83.667 13.972,83.667 12.759 C 83.667 11.665,83.617 11.463,83.250 11.068 C 83.021 10.820,82.832 10.685,82.831 10.767 C 82.820 11.389,82.505 10.228,82.503 9.560 C 82.501 8.968,82.402 8.582,82.182 8.310 L 81.863 7.917 77.140 7.891 C 74.542 7.876,72.285 7.901,72.125 7.945 M105.500 32.583 L 105.500 38.000 104.833 38.000 C 104.257 38.000,104.165 37.949,104.153 37.625 C 104.108 36.396,103.844 35.833,103.313 35.833 C 103.042 35.833,103.000 35.701,103.000 34.845 C 103.000 33.797,102.746 33.333,102.171 33.333 C 101.956 33.333,101.823 33.149,101.719 32.708 C 101.637 32.365,101.480 32.074,101.369 32.063 C 101.258 32.051,101.017 32.032,100.833 32.021 C 100.650 32.009,100.500 31.887,100.500 31.750 C 100.500 31.613,100.421 31.500,100.323 31.500 C 100.226 31.500,100.189 31.432,100.240 31.350 C 100.470 30.977,99.119 30.833,95.383 30.833 L 91.483 30.833 91.244 31.406 C 91.050 31.870,90.901 31.989,90.461 32.031 C 89.990 32.076,89.910 32.152,89.867 32.593 C 89.827 33.004,89.714 33.133,89.284 33.259 C 88.826 33.394,88.743 33.503,88.700 34.018 C 88.664 34.447,88.537 34.679,88.260 34.828 C 87.705 35.125,87.500 35.691,87.500 36.925 L 87.500 38.000 86.664 38.000 L 85.828 38.000 85.872 33.734 L 85.917 29.469 94.836 29.487 C 103.454 29.504,103.764 29.494,104.030 29.183 C 104.182 29.006,104.274 28.830,104.235 28.791 C 104.196 28.752,104.334 28.577,104.541 28.402 L 104.917 28.083 104.599 28.458 C 104.425 28.665,104.350 28.831,104.433 28.828 C 104.740 28.817,105.256 27.926,105.321 27.292 C 105.432 26.204,105.500 28.222,105.500 32.583 " stroke="none" fill="#2da8b5" fill-rule="evenodd"></path><path id="path3" d="" stroke="none" fill="#55ff55" fill-rule="evenodd"></path><path id="path4" d="M99.544 8.782 C 99.810 9.048,99.809 9.084,99.538 9.390 C 99.260 9.704,99.262 9.709,99.625 9.518 C 100.152 9.242,100.011 8.500,99.431 8.500 C 99.338 8.500,99.389 8.627,99.544 8.782 M112.251 9.999 C 112.085 10.183,112.026 10.333,112.120 10.333 C 112.330 10.333,112.746 9.857,112.634 9.745 C 112.590 9.701,112.417 9.815,112.251 9.999 M88.204 10.926 C 87.821 11.194,87.670 11.623,88.042 11.387 C 88.156 11.315,88.318 11.254,88.401 11.253 C 88.484 11.251,88.571 11.119,88.594 10.958 C 88.646 10.605,88.660 10.606,88.204 10.926 M72.584 11.834 C 72.751 12.018,72.923 12.133,72.967 12.088 C 73.079 11.976,72.663 11.500,72.454 11.500 C 72.359 11.500,72.418 11.650,72.584 11.834 M86.830 13.421 C 86.508 13.809,86.738 13.882,87.082 13.501 C 87.249 13.317,87.308 13.167,87.213 13.167 C 87.118 13.167,86.946 13.281,86.830 13.421 M104.583 28.896 C 104.243 29.226,104.194 29.324,104.430 29.200 C 104.793 29.010,105.262 28.522,105.149 28.451 C 105.113 28.428,104.858 28.629,104.583 28.896 M115.066 42.252 C 115.087 42.390,115.208 42.596,115.335 42.710 C 115.532 42.885,115.534 42.872,115.347 42.625 C 115.209 42.443,115.193 42.333,115.305 42.333 C 115.403 42.333,115.560 42.465,115.653 42.625 C 115.747 42.785,115.825 42.828,115.828 42.720 C 115.834 42.496,115.380 42.000,115.170 42.000 C 115.093 42.000,115.046 42.113,115.066 42.252 " stroke="none" fill="#00ffff" fill-rule="evenodd"></path></g></svg>