<?xml version="1.0" encoding="utf-8"?>
<!-- Generator: Adobe Illustrator 21.0.0, SVG Export Plug-In . SVG Version: 6.00 Build 0)  -->
<svg version="1.1" id="Layer_1" xmlns="http://www.w3.org/2000/svg" xmlns:xlink="http://www.w3.org/1999/xlink" x="0px" y="0px"
	 viewBox="0 0 332 53" style="enable-background:new 0 0 332 53;" xml:space="preserve">
<style type="text/css">
	.st0{fill:none;enable-background:new    ;}
	.st1{fill:url(#XMLID_4_);}
	.st2{fill:#FFFFFF;}
</style>
<linearGradient id="XMLID_4_" gradientUnits="userSpaceOnUse" x1="-1192.693" y1="950.8667" x2="-1146.0435" y2="950.8667" gradientTransform="matrix(4.489700e-11 1 -1 4.489700e-11 974.3954 1197.4143)">
	<stop  offset="0" style="stop-color:#189ED8"/>
	<stop  offset="1" style="stop-color:#5ABE6E"/>
</linearGradient>
<path id="XMLID_7_" class="st1" d="M47.1,12.6V5.8c0-0.5-0.4-0.8-0.9-0.6l-23.9,9.1l4.2-8.7c0.2-0.5-0.1-0.7-0.6-0.7h-6.7
	c-0.3,0-0.5-0.1-0.6,0.1l-5.7,11.4L8.5,5C8.4,4.7,8.2,4.7,7.9,4.7H1.1C0.6,4.7,0.3,5,0.5,5.4l9.1,23.8L0.8,25C0.3,24.7,0,25,0,25.5
	v6.7c0,0.3-0.1,0.5,0.2,0.6l11.5,5.7L0.3,42.9C0,43,0,43.2,0,43.5v6.8c0,0.5,0.3,0.8,0.7,0.6l23.8-9.1l-4.3,8.7
	c-0.2,0.5,0.1,0.7,0.6,0.7h6.7c0.3,0,0.5,0.1,0.6-0.1l5.7-11.4l4.3,11.3c0.1,0.3,0.4,0.3,0.6,0.3h6.8c0.5,0,0.8-0.2,0.6-0.7
	l-9.1-23.8l8.9,4.3c0.5,0.2,0.9-0.1,0.9-0.6v-6.7c0-0.3-0.1-0.5-0.3-0.6l-11.5-5.7l11.5-4.3C46.9,13.1,47.1,12.9,47.1,12.6z
	 M30.5,35.8c0-4.3-3.2-7.7-7.2-7.7c-4,0-7.2,3.4-7.2,7.7h-4.1V22h2.2v2.6h17.3V22h3v2.5l0,11.3H30.5z"/>
<g>
	<path class="st2" d="M60.2,18.1v17.3h10.4v3.9h-15V18.1H60.2z"/>
	<path class="st2" d="M71.9,28.7c0.1-1,0.3-1.8,0.7-2.5c0.4-0.7,1-1.2,1.7-1.6c0.7-0.4,1.4-0.7,2.3-0.8c0.8-0.2,1.7-0.3,2.5-0.3
		c0.8,0,1.6,0.1,2.4,0.2c0.8,0.1,1.5,0.3,2.2,0.6s1.2,0.8,1.6,1.3c0.4,0.6,0.6,1.3,0.6,2.2v8c0,0.7,0,1.4,0.1,2
		c0.1,0.6,0.2,1.1,0.4,1.4h-4.3c-0.1-0.2-0.1-0.5-0.2-0.7c0-0.2-0.1-0.5-0.1-0.8c-0.7,0.7-1.5,1.2-2.4,1.5c-0.9,0.3-1.8,0.4-2.8,0.4
		c-0.7,0-1.4-0.1-2.1-0.3C74,39.3,73.5,39,73,38.6c-0.5-0.4-0.8-0.9-1.1-1.4c-0.3-0.6-0.4-1.3-0.4-2.1c0-0.9,0.2-1.6,0.5-2.2
		c0.3-0.6,0.7-1,1.2-1.4c0.5-0.3,1-0.6,1.7-0.8c0.6-0.2,1.3-0.3,1.9-0.4c0.6-0.1,1.3-0.2,1.9-0.2c0.6-0.1,1.2-0.1,1.6-0.3
		c0.5-0.1,0.9-0.3,1.1-0.5c0.3-0.2,0.4-0.6,0.4-1c0-0.5-0.1-0.8-0.2-1.1c-0.1-0.3-0.3-0.5-0.6-0.6c-0.2-0.1-0.5-0.2-0.9-0.3
		c-0.3,0-0.7-0.1-1.1-0.1c-0.8,0-1.5,0.2-2,0.5c-0.5,0.4-0.8,1-0.8,1.8H71.9z M81.7,31.8c-0.2,0.2-0.4,0.3-0.7,0.4
		c-0.3,0.1-0.6,0.2-0.9,0.2c-0.3,0.1-0.6,0.1-1,0.1c-0.3,0-0.7,0.1-1,0.1c-0.3,0.1-0.6,0.1-0.9,0.2c-0.3,0.1-0.6,0.2-0.8,0.4
		c-0.2,0.2-0.4,0.4-0.6,0.6c-0.1,0.3-0.2,0.6-0.2,1c0,0.4,0.1,0.7,0.2,1c0.1,0.3,0.3,0.5,0.6,0.6c0.2,0.1,0.5,0.3,0.8,0.3
		c0.3,0.1,0.6,0.1,1,0.1c0.8,0,1.5-0.1,1.9-0.4c0.5-0.3,0.8-0.6,1-1c0.2-0.4,0.4-0.8,0.4-1.2c0-0.4,0.1-0.7,0.1-1V31.8z"/>
	<path class="st2" d="M92.7,24V26h0.1c0.6-0.8,1.2-1.4,2-1.8c0.8-0.4,1.7-0.7,2.7-0.7c1,0,1.9,0.2,2.7,0.6c0.8,0.4,1.4,1,1.8,2
		c0.5-0.7,1.1-1.3,1.9-1.8c0.8-0.5,1.7-0.8,2.8-0.8c0.8,0,1.6,0.1,2.3,0.3c0.7,0.2,1.3,0.5,1.8,1c0.5,0.4,0.9,1,1.2,1.7
		c0.3,0.7,0.4,1.6,0.4,2.5v10.3H108v-8.7c0-0.5,0-1-0.1-1.5c0-0.5-0.1-0.9-0.3-1.2c-0.2-0.3-0.4-0.6-0.8-0.8
		c-0.3-0.2-0.8-0.3-1.4-0.3s-1.1,0.1-1.4,0.3c-0.4,0.2-0.7,0.5-0.9,0.9c-0.2,0.4-0.3,0.8-0.4,1.3c-0.1,0.5-0.1,0.9-0.1,1.4v8.6h-4.2
		v-8.6c0-0.5,0-0.9,0-1.4c0-0.4-0.1-0.9-0.3-1.2c-0.1-0.4-0.4-0.7-0.7-0.9c-0.3-0.2-0.9-0.3-1.5-0.3c-0.2,0-0.5,0-0.8,0.1
		c-0.3,0.1-0.6,0.3-1,0.5c-0.3,0.2-0.6,0.6-0.8,1.1c-0.2,0.5-0.3,1.1-0.3,1.8v8.9h-4.2V24H92.7z"/>
	<path class="st2" d="M119.2,18.1v7.7h0.1c0.5-0.8,1.2-1.4,2.1-1.7c0.9-0.4,1.8-0.6,2.8-0.6c0.8,0,1.5,0.2,2.3,0.5
		c0.8,0.3,1.4,0.8,2,1.5c0.6,0.7,1.1,1.5,1.5,2.5c0.4,1,0.6,2.2,0.6,3.6c0,1.4-0.2,2.6-0.6,3.6c-0.4,1-0.9,1.9-1.5,2.5
		c-0.6,0.7-1.3,1.1-2,1.5c-0.8,0.3-1.5,0.5-2.3,0.5c-1.1,0-2.1-0.2-3-0.5c-0.9-0.4-1.6-1-2-1.8H119v2h-4V18.1H119.2z M126.1,29.8
		c-0.1-0.6-0.4-1.1-0.7-1.6c-0.3-0.5-0.7-0.8-1.1-1.1c-0.4-0.3-1-0.4-1.6-0.4c-0.6,0-1.2,0.1-1.6,0.4c-0.5,0.3-0.8,0.6-1.1,1.1
		c-0.3,0.5-0.5,1-0.7,1.6c-0.1,0.6-0.2,1.2-0.2,1.9c0,0.6,0.1,1.3,0.2,1.8c0.1,0.6,0.4,1.1,0.7,1.6c0.3,0.5,0.7,0.8,1.1,1.1
		c0.5,0.3,1,0.4,1.6,0.4c0.6,0,1.2-0.1,1.6-0.4c0.4-0.3,0.8-0.6,1.1-1.1c0.3-0.5,0.5-1,0.7-1.6c0.1-0.6,0.2-1.2,0.2-1.8
		C126.3,31,126.2,30.4,126.1,29.8z"/>
	<path class="st2" d="M143.5,37.4c-0.5,0.8-1.1,1.4-2,1.8c-0.8,0.4-1.7,0.6-2.7,0.6c-1.2,0-2.2-0.2-3-0.7c-0.9-0.4-1.6-1.1-2.2-1.8
		c-0.6-0.8-1-1.6-1.3-2.6c-0.3-1-0.4-2-0.4-3.1c0-1,0.1-2,0.4-3s0.7-1.8,1.3-2.5c0.6-0.7,1.3-1.3,2.1-1.8c0.9-0.4,1.8-0.7,3-0.7
		c0.9,0,1.8,0.2,2.6,0.6c0.8,0.4,1.5,1,2,1.7h0.1v-7.7h4.2v21.3h-4L143.5,37.4L143.5,37.4z M143.3,29.8c-0.1-0.6-0.3-1.1-0.6-1.5
		c-0.3-0.4-0.7-0.8-1.1-1.1c-0.5-0.3-1-0.4-1.7-0.4c-0.7,0-1.3,0.1-1.8,0.4c-0.5,0.3-0.9,0.6-1.1,1.1c-0.3,0.5-0.5,1-0.6,1.6
		c-0.1,0.6-0.2,1.2-0.2,1.8c0,0.6,0.1,1.2,0.2,1.8c0.1,0.6,0.4,1.1,0.7,1.6c0.3,0.5,0.7,0.8,1.2,1.1c0.5,0.3,1,0.4,1.7,0.4
		c0.7,0,1.3-0.1,1.7-0.4c0.5-0.3,0.8-0.6,1.1-1.1c0.3-0.5,0.5-1,0.6-1.6s0.2-1.2,0.2-1.8C143.5,31,143.5,30.4,143.3,29.8z"/>
	<path class="st2" d="M150,28.7c0.1-1,0.3-1.8,0.7-2.5c0.4-0.7,1-1.2,1.7-1.6c0.7-0.4,1.4-0.7,2.3-0.8c0.8-0.2,1.7-0.3,2.5-0.3
		c0.8,0,1.6,0.1,2.4,0.2c0.8,0.1,1.5,0.3,2.2,0.6c0.7,0.3,1.2,0.8,1.6,1.3c0.4,0.6,0.6,1.3,0.6,2.2v8c0,0.7,0,1.4,0.1,2
		c0.1,0.6,0.2,1.1,0.4,1.4h-4.3c-0.1-0.2-0.1-0.5-0.2-0.7c0-0.2-0.1-0.5-0.1-0.8c-0.7,0.7-1.5,1.2-2.4,1.5c-0.9,0.3-1.8,0.4-2.8,0.4
		c-0.7,0-1.4-0.1-2.1-0.3c-0.6-0.2-1.2-0.5-1.7-0.8c-0.5-0.4-0.8-0.9-1.1-1.4c-0.3-0.6-0.4-1.3-0.4-2.1c0-0.9,0.2-1.6,0.5-2.2
		c0.3-0.6,0.7-1,1.2-1.4c0.5-0.3,1-0.6,1.7-0.8c0.6-0.2,1.3-0.3,1.9-0.4c0.6-0.1,1.3-0.2,1.9-0.2c0.6-0.1,1.2-0.1,1.6-0.3
		c0.5-0.1,0.9-0.3,1.1-0.5c0.3-0.2,0.4-0.6,0.4-1c0-0.5-0.1-0.8-0.2-1.1c-0.1-0.3-0.3-0.5-0.6-0.6c-0.2-0.1-0.5-0.2-0.9-0.3
		c-0.3,0-0.7-0.1-1.1-0.1c-0.8,0-1.5,0.2-2,0.5c-0.5,0.4-0.8,1-0.8,1.8H150z M159.8,31.8c-0.2,0.2-0.4,0.3-0.7,0.4
		c-0.3,0.1-0.6,0.2-0.9,0.2c-0.3,0.1-0.6,0.1-1,0.1c-0.3,0-0.7,0.1-1,0.1c-0.3,0.1-0.6,0.1-0.9,0.2c-0.3,0.1-0.6,0.2-0.8,0.4
		c-0.2,0.2-0.4,0.4-0.6,0.6c-0.1,0.3-0.2,0.6-0.2,1c0,0.4,0.1,0.7,0.2,1c0.1,0.3,0.3,0.5,0.6,0.6c0.2,0.1,0.5,0.3,0.8,0.3
		c0.3,0.1,0.6,0.1,1,0.1c0.8,0,1.5-0.1,1.9-0.4c0.5-0.3,0.8-0.6,1-1c0.2-0.4,0.4-0.8,0.4-1.2c0-0.4,0.1-0.7,0.1-1V31.8z"/>
	<path class="st2" d="M184.8,18.1c1,0,1.9,0.1,2.8,0.3c0.8,0.2,1.5,0.5,2.1,0.9s1.1,0.9,1.4,1.6c0.3,0.7,0.5,1.5,0.5,2.5
		c0,1.1-0.2,2-0.7,2.7c-0.5,0.7-1.2,1.3-2.2,1.8c1.3,0.4,2.3,1,2.9,2c0.6,0.9,1,2.1,1,3.4c0,1.1-0.2,2-0.6,2.8
		c-0.4,0.8-1,1.4-1.7,1.9c-0.7,0.5-1.5,0.9-2.4,1.1s-1.8,0.4-2.8,0.4h-10.3V18.1H184.8z M184.2,26.7c0.8,0,1.5-0.2,2.1-0.6
		c0.5-0.4,0.8-1,0.8-1.9c0-0.5-0.1-0.9-0.3-1.2s-0.4-0.6-0.7-0.7c-0.3-0.2-0.6-0.3-1-0.4c-0.4-0.1-0.8-0.1-1.2-0.1h-4.4v5H184.2z
		 M184.5,35.7c0.5,0,0.9,0,1.3-0.1c0.4-0.1,0.8-0.2,1.1-0.4c0.3-0.2,0.6-0.5,0.8-0.8c0.2-0.4,0.3-0.8,0.3-1.4c0-1.1-0.3-1.9-0.9-2.3
		c-0.6-0.5-1.4-0.7-2.4-0.7h-5.1v5.8H184.5z"/>
	<path class="st2" d="M198.8,24v2.9h0.1c0.2-0.5,0.5-0.9,0.8-1.3s0.7-0.8,1.2-1c0.4-0.3,0.9-0.5,1.4-0.7c0.5-0.2,1-0.2,1.5-0.2
		c0.3,0,0.6,0,0.9,0.1v3.9c-0.2,0-0.4-0.1-0.7-0.1c-0.3,0-0.5,0-0.8,0c-0.8,0-1.4,0.1-2,0.4c-0.5,0.3-1,0.6-1.3,1.1
		c-0.3,0.4-0.6,1-0.7,1.6c-0.1,0.6-0.2,1.2-0.2,1.9v6.9h-4.2V24H198.8z"/>
	<path class="st2" d="M205.8,21.6v-3.5h4.2v3.5H205.8z M210.1,24v15.4h-4.2V24H210.1z"/>
	<path class="st2" d="M223.7,37.4c-0.5,0.8-1.1,1.4-2,1.8c-0.8,0.4-1.7,0.6-2.7,0.6c-1.2,0-2.2-0.2-3-0.7c-0.9-0.4-1.6-1.1-2.2-1.8
		c-0.6-0.8-1-1.6-1.3-2.6c-0.3-1-0.4-2-0.4-3.1c0-1,0.1-2,0.4-3c0.3-1,0.7-1.8,1.3-2.5c0.6-0.7,1.3-1.3,2.1-1.8
		c0.9-0.4,1.8-0.7,3-0.7c0.9,0,1.8,0.2,2.6,0.6c0.8,0.4,1.5,1,2,1.7h0.1v-7.7h4.2v21.3h-4L223.7,37.4L223.7,37.4z M223.6,29.8
		c-0.1-0.6-0.3-1.1-0.6-1.5c-0.3-0.4-0.7-0.8-1.1-1.1c-0.5-0.3-1-0.4-1.7-0.4c-0.7,0-1.3,0.1-1.8,0.4c-0.5,0.3-0.9,0.6-1.1,1.1
		c-0.3,0.5-0.5,1-0.6,1.6c-0.1,0.6-0.2,1.2-0.2,1.8c0,0.6,0.1,1.2,0.2,1.8c0.1,0.6,0.4,1.1,0.7,1.6c0.3,0.5,0.7,0.8,1.2,1.1
		c0.5,0.3,1,0.4,1.7,0.4c0.7,0,1.3-0.1,1.7-0.4c0.5-0.3,0.8-0.6,1.1-1.1c0.3-0.5,0.5-1,0.6-1.6c0.1-0.6,0.2-1.2,0.2-1.8
		C223.7,31,223.7,30.4,223.6,29.8z"/>
	<path class="st2" d="M245,40.5c-0.2,0.8-0.5,1.5-1.1,2.2c-0.6,0.7-1.4,1.3-2.4,1.7c-1.1,0.5-2.5,0.7-4.2,0.7
		c-0.8,0-1.5-0.1-2.3-0.3c-0.8-0.2-1.5-0.5-2.1-0.9c-0.6-0.4-1.2-0.9-1.6-1.5c-0.4-0.6-0.7-1.4-0.7-2.2h4.2c0.2,0.8,0.6,1.3,1.2,1.7
		c0.6,0.3,1.2,0.5,2,0.5c1.2,0,2.1-0.4,2.6-1.1c0.5-0.7,0.8-1.6,0.8-2.7v-2h-0.1c-0.5,0.8-1.1,1.4-2,1.8c-0.8,0.4-1.7,0.6-2.7,0.6
		c-1.2,0-2.1-0.2-3-0.6c-0.8-0.4-1.5-1-2.1-1.7c-0.5-0.7-0.9-1.5-1.2-2.5c-0.2-0.9-0.4-1.9-0.4-3c0-1,0.1-2,0.4-2.9s0.7-1.7,1.3-2.4
		s1.2-1.3,2.1-1.7c0.8-0.4,1.8-0.6,2.8-0.6c1,0,1.9,0.2,2.7,0.6c0.8,0.4,1.4,1,1.9,1.9h0.1V24h4v14.4C245.2,39,245.1,39.7,245,40.5z
		 M239.2,35.4c0.5-0.2,0.8-0.6,1.1-1c0.3-0.4,0.5-0.8,0.7-1.4c0.1-0.5,0.2-1,0.2-1.6c0-0.6-0.1-1.2-0.2-1.8
		c-0.1-0.6-0.3-1.1-0.6-1.5c-0.3-0.4-0.6-0.8-1.1-1c-0.5-0.3-1-0.4-1.7-0.4c-0.6,0-1.1,0.1-1.5,0.4c-0.4,0.2-0.8,0.6-1.1,1
		c-0.3,0.4-0.5,0.9-0.6,1.4c-0.1,0.5-0.2,1.1-0.2,1.7c0,0.6,0.1,1.1,0.2,1.7c0.1,0.5,0.3,1,0.6,1.5c0.3,0.4,0.6,0.8,1.1,1.1
		c0.4,0.3,1,0.4,1.6,0.4C238.2,35.7,238.7,35.6,239.2,35.4z"/>
	<path class="st2" d="M252.5,35.7c0.6,0.6,1.5,0.9,2.7,0.9c0.9,0,1.6-0.2,2.2-0.6c0.6-0.4,1-0.9,1.1-1.4h3.7c-0.6,1.8-1.5,3.2-2.7,4
		c-1.2,0.8-2.7,1.2-4.5,1.2c-1.2,0-2.3-0.2-3.3-0.6c-1-0.4-1.8-0.9-2.5-1.7c-0.7-0.7-1.2-1.6-1.6-2.6c-0.4-1-0.6-2.1-0.6-3.3
		c0-1.2,0.2-2.2,0.6-3.2c0.4-1,0.9-1.9,1.6-2.6c0.7-0.7,1.5-1.3,2.5-1.7c1-0.4,2-0.6,3.2-0.6c1.3,0,2.5,0.3,3.4,0.8
		c1,0.5,1.8,1.2,2.4,2c0.6,0.9,1.1,1.8,1.4,2.9c0.3,1.1,0.4,2.2,0.3,3.4h-11.1C251.6,34.1,251.9,35,252.5,35.7z M257.3,27.6
		c-0.5-0.6-1.3-0.8-2.3-0.8c-0.7,0-1.2,0.1-1.7,0.3c-0.4,0.2-0.8,0.5-1.1,0.8c-0.3,0.3-0.5,0.7-0.6,1.1c-0.1,0.4-0.2,0.7-0.2,1h6.9
		C258.2,28.9,257.8,28.1,257.3,27.6z"/>
	<path class="st2" d="M282.2,18.1c1.3,0,2.5,0.2,3.4,0.6c0.9,0.4,1.7,0.9,2.3,1.5c0.6,0.6,1,1.4,1.3,2.2c0.3,0.8,0.4,1.7,0.4,2.5
		c0,0.9-0.1,1.7-0.4,2.5c-0.3,0.8-0.7,1.6-1.3,2.2c-0.6,0.6-1.3,1.1-2.3,1.5c-0.9,0.4-2.1,0.6-3.4,0.6h-4.9v7.6h-4.7V18.1H282.2z
		 M280.9,28.1c0.5,0,1.1,0,1.5-0.1c0.5-0.1,0.9-0.2,1.3-0.5c0.4-0.2,0.7-0.6,0.9-1c0.2-0.4,0.3-1,0.3-1.6s-0.1-1.2-0.3-1.6
		s-0.5-0.7-0.9-1s-0.8-0.4-1.3-0.5c-0.5-0.1-1-0.1-1.5-0.1h-3.6v6.4H280.9z"/>
	<path class="st2" d="M291.5,28.3c0.4-1,0.9-1.9,1.6-2.6c0.7-0.7,1.5-1.3,2.5-1.6c1-0.4,2.1-0.6,3.3-0.6c1.2,0,2.3,0.2,3.3,0.6
		s1.8,0.9,2.5,1.6c0.7,0.7,1.2,1.6,1.6,2.6c0.4,1,0.6,2.1,0.6,3.3c0,1.2-0.2,2.3-0.6,3.3c-0.4,1-0.9,1.8-1.6,2.5
		c-0.7,0.7-1.5,1.2-2.5,1.6c-1,0.4-2.1,0.6-3.3,0.6c-1.2,0-2.3-0.2-3.3-0.6c-1-0.4-1.8-0.9-2.5-1.6c-0.7-0.7-1.2-1.6-1.6-2.5
		c-0.4-1-0.6-2.1-0.6-3.3C291,30.4,291.2,29.3,291.5,28.3z M295.4,33.5c0.1,0.6,0.3,1.1,0.6,1.6c0.3,0.5,0.7,0.8,1.1,1.1
		c0.5,0.3,1.1,0.4,1.8,0.4c0.7,0,1.3-0.1,1.8-0.4c0.5-0.3,0.9-0.6,1.2-1.1c0.3-0.5,0.5-1,0.6-1.6c0.1-0.6,0.2-1.2,0.2-1.8
		c0-0.6-0.1-1.2-0.2-1.8c-0.1-0.6-0.3-1.1-0.6-1.6c-0.3-0.5-0.7-0.8-1.2-1.1c-0.5-0.3-1.1-0.4-1.8-0.4c-0.7,0-1.3,0.1-1.8,0.4
		s-0.9,0.7-1.1,1.1c-0.3,0.5-0.5,1-0.6,1.6c-0.1,0.6-0.2,1.2-0.2,1.8C295.2,32.3,295.3,32.9,295.4,33.5z"/>
	<path class="st2" d="M309.1,28.3c0.4-1,0.9-1.9,1.6-2.6c0.7-0.7,1.5-1.3,2.5-1.6c1-0.4,2.1-0.6,3.3-0.6c1.2,0,2.3,0.2,3.3,0.6
		s1.8,0.9,2.5,1.6c0.7,0.7,1.2,1.6,1.6,2.6c0.4,1,0.6,2.1,0.6,3.3c0,1.2-0.2,2.3-0.6,3.3c-0.4,1-0.9,1.8-1.6,2.5
		c-0.7,0.7-1.5,1.2-2.5,1.6c-1,0.4-2.1,0.6-3.3,0.6c-1.2,0-2.3-0.2-3.3-0.6c-1-0.4-1.8-0.9-2.5-1.6c-0.7-0.7-1.2-1.6-1.6-2.5
		c-0.4-1-0.6-2.1-0.6-3.3C308.6,30.4,308.8,29.3,309.1,28.3z M313,33.5c0.1,0.6,0.3,1.1,0.6,1.6c0.3,0.5,0.7,0.8,1.1,1.1
		c0.5,0.3,1.1,0.4,1.8,0.4c0.7,0,1.3-0.1,1.8-0.4c0.5-0.3,0.9-0.6,1.2-1.1c0.3-0.5,0.5-1,0.6-1.6c0.1-0.6,0.2-1.2,0.2-1.8
		c0-0.6-0.1-1.2-0.2-1.8c-0.1-0.6-0.3-1.1-0.6-1.6c-0.3-0.5-0.7-0.8-1.2-1.1c-0.5-0.3-1.1-0.4-1.8-0.4c-0.7,0-1.3,0.1-1.8,0.4
		s-0.9,0.7-1.1,1.1c-0.3,0.5-0.5,1-0.6,1.6c-0.1,0.6-0.2,1.2-0.2,1.8C312.8,32.3,312.9,32.9,313,33.5z"/>
	<path class="st2" d="M331,18.1v21.3h-4.2V18.1H331z"/>
</g>
</svg>
